<svg class="main-svg" xmlns="http://www.w3.org/2000/svg" xmlns:xlink="http://www.w3.org/1999/xlink" width="1800" height="2400" style="" viewBox="0 0 900 1200"><rect x="0" y="0" width="900" height="1200" style="fill: rgb(255, 255, 255); fill-opacity: 1;"/><defs id="defs-cd6895"><g class="clips"><clipPath id="clipcd6895polar-for-traces"><path d="M111.99999999999997,0A111.99999999999997,111.99999999999997 0,1,0 -111.99999999999997,-1.3716044150450352e-14A111.99999999999997,111.99999999999997 0,1,0 111.99999999999997,2.7432088300900705e-14Z" transform="translate(111.99999999999997,112)"/></clipPath><clipPath id="clipcd6895polar2-for-traces"><path d="M111.99999999999997,0A111.99999999999997,111.99999999999997 0,1,0 -111.99999999999997,-1.3716044150450352e-14A111.99999999999997,111.99999999999997 0,1,0 111.99999999999997,2.7432088300900705e-14Z" transform="translate(111.99999999999994,112)"/></clipPath><clipPath id="clipcd6895polar3-for-traces"><path d="M111.99999999999997,0A111.99999999999997,111.99999999999997 0,1,0 -111.99999999999997,-1.3716044150450352e-14A111.99999999999997,111.99999999999997 0,1,0 111.99999999999997,2.7432088300900705e-14Z" transform="translate(111.99999999999997,112)"/></clipPath><clipPath id="clipcd6895polar4-for-traces"><path d="M111.99999999999997,0A111.99999999999997,111.99999999999997 0,1,0 -111.99999999999997,-1.3716044150450352e-14A111.99999999999997,111.99999999999997 0,1,0 111.99999999999997,2.7432088300900705e-14Z" transform="translate(111.99999999999994,112)"/></clipPath></g><g class="gradients"/><g class="patterns"/></defs><g class="bglayer"/><g class="layer-below"><g class="imagelayer"/><g class="shapelayer"/></g><g class="cartesianlayer"/><g class="polarlayer"><g class="polar"><g class="polarsublayer draglayer"/><g class="polarsublayer plotbg"><path d="M111.99999999999997,0A111.99999999999997,111.99999999999997 0,1,0 -111.99999999999997,-1.3716044150450352e-14A111.99999999999997,111.99999999999997 0,1,0 111.99999999999997,2.7432088300900705e-14Z" transform="translate(232.26000000000002,392)" style="fill: rgb(255, 255, 255); fill-opacity: 1;"/></g><g class="polarsublayer backplot"><g class="maplayer"/></g><g class="polarsublayer angular-grid" style="fill: none;"><path class="angularaxisgrid" d="M232.26000000000002,392L232.26000000000002,280" style="stroke: rgb(235, 240, 248); stroke-opacity: 1; stroke-width: 1px;"/><path class="angularaxisgrid" d="M232.26000000000002,392L311.4559594928933,312.8040405071067" style="stroke: rgb(235, 240, 248); stroke-opacity: 1; stroke-width: 1px;"/><path class="angularaxisgrid" d="M232.26000000000002,392L344.26,392" style="stroke: rgb(235, 240, 248); stroke-opacity: 1; stroke-width: 1px;"/><path class="angularaxisgrid" d="M232.26000000000002,392L311.4559594928933,471.1959594928933" style="stroke: rgb(235, 240, 248); stroke-opacity: 1; stroke-width: 1px;"/><path class="angularaxisgrid" d="M232.26000000000002,392L232.26000000000002,504" style="stroke: rgb(235, 240, 248); stroke-opacity: 1; stroke-width: 1px;"/><path class="angularaxisgrid" d="M232.26000000000002,392L153.0640405071067,471.1959594928933" style="stroke: rgb(235, 240, 248); stroke-opacity: 1; stroke-width: 1px;"/><path class="angularaxisgrid" d="M232.26000000000002,392L120.26000000000005,392" style="stroke: rgb(235, 240, 248); stroke-opacity: 1; stroke-width: 1px;"/><path class="angularaxisgrid" d="M232.26000000000002,392L153.0640405071067,312.8040405071067" style="stroke: rgb(235, 240, 248); stroke-opacity: 1; stroke-width: 1px;"/></g><g class="polarsublayer radial-grid" transform="translate(232.26000000000002,392)" style="fill: none;"><path class="xgrid" d="M17.16,0A17.16,17.16 0,1,0 -17.16,-2.1014939073368583e-15A17.16,17.16 0,1,0 17.16,4.2029878146737166e-15Z" style="stroke: rgb(235, 240, 248); stroke-opacity: 1; stroke-width: 1px;"/><path class="xgrid" d="M34.31,0A34.31,34.31 0,1,0 -34.31,-4.201763167874569e-15A34.31,34.31 0,1,0 34.31,8.403526335749138e-15Z" style="stroke: rgb(235, 240, 248); stroke-opacity: 1; stroke-width: 1px;"/><path class="xgrid" d="M51.47,0A51.47,51.47 0,1,0 -51.47,-6.303257075211427e-15A51.47,51.47 0,1,0 51.47,1.2606514150422854e-14Z" style="stroke: rgb(235, 240, 248); stroke-opacity: 1; stroke-width: 1px;"/><path class="xgrid" d="M68.62,0A68.62,68.62 0,1,0 -68.62,-8.403526335749138e-15A68.62,68.62 0,1,0 68.62,1.6807052671498276e-14Z" style="stroke: rgb(235, 240, 248); stroke-opacity: 1; stroke-width: 1px;"/><path class="xgrid" d="M85.78,0A85.78,85.78 0,1,0 -85.78,-1.0505020243085997e-14A85.78,85.78 0,1,0 85.78,2.1010040486171993e-14Z" style="stroke: rgb(235, 240, 248); stroke-opacity: 1; stroke-width: 1px;"/><path class="xgrid" d="M102.93,0A102.93,102.93 0,1,0 -102.93,-1.2605289503623707e-14A102.93,102.93 0,1,0 102.93,2.5210579007247414e-14Z" style="stroke: rgb(235, 240, 248); stroke-opacity: 1; stroke-width: 1px;"/></g><g class="polarsublayer frontplot" transform="translate(120.26000000000005,280)" clip-path="url(#clipcd6895polar-for-traces)"><g class="barlayer"><g class="trace bars" style="opacity: 1;"><g class="points"><g class="point" style="vector-effect: none; stroke-miterlimit: 2;"><path d="M111.99999999999997,112L118.94734282513105,93.16840325277037A20.072234762979676,20.072234762979676 0,0,0 105.0526571748689,93.16840325277037L111.99999999999997,112A0,0 0,0,1 111.99999999999997,112Z" style="opacity: 1; stroke-width: 0.5px; fill: rgb(174, 214, 241); fill-opacity: 1; stroke: rgb(255, 255, 255); stroke-opacity: 1;"/></g><g class="point" style="vector-effect: none; stroke-miterlimit: 2;"><path d="M111.99999999999997,112L124.49506607922939,106.23969563828865A13.7589164785553,13.7589164785553 0,0,0 117.76030436171133,99.50493392077058L111.99999999999997,112A0,0 0,0,1 111.99999999999997,112Z" style="opacity: 1; stroke-width: 0.5px; fill: rgb(174, 214, 241); fill-opacity: 1; stroke: rgb(255, 255, 255); stroke-opacity: 1;"/></g><g class="point" style="vector-effect: none; stroke-miterlimit: 2;"><path d="M111.99999999999997,112L128.28852641726183,118.00915464874586A17.361625282167036,17.361625282167036 0,0,0 128.28852641726183,105.99084535125415L111.99999999999997,112A0,0 0,0,1 111.99999999999997,112Z" style="opacity: 1; stroke-width: 0.5px; fill: rgb(174, 214, 241); fill-opacity: 1; stroke: rgb(255, 255, 255); stroke-opacity: 1;"/></g><g class="point" style="vector-effect: none; stroke-miterlimit: 2;"><path d="M111.99999999999997,112L132.75720649045613,157.02586155732297A49.58013544018057,49.58013544018057 0,0,0 157.02586155732297,132.75720649045613L111.99999999999997,112A0,0 0,0,1 111.99999999999997,112Z" style="opacity: 1; stroke-width: 0.5px; fill: rgb(174, 214, 241); fill-opacity: 1; stroke: rgb(255, 255, 255); stroke-opacity: 1;"/></g><g class="point" style="vector-effect: none; stroke-miterlimit: 2;"><path d="M111.99999999999997,112L97.09587137514612,152.39940840644988A43.060948081264094,43.060948081264094 0,0,0 126.90412862485383,152.39940840644988L111.99999999999997,112A0,0 0,0,1 111.99999999999997,112Z" style="opacity: 1; stroke-width: 0.5px; fill: rgb(174, 214, 241); fill-opacity: 1; stroke: rgb(255, 255, 255); stroke-opacity: 1;"/></g><g class="point" style="vector-effect: none; stroke-miterlimit: 2;"><path d="M111.99999999999997,112L87.7888619861315,123.16148750386465A26.66004514672685,26.66004514672685 0,0,0 100.83851249613534,136.2111380138685L111.99999999999997,112A0,0 0,0,1 111.99999999999997,112Z" style="opacity: 1; stroke-width: 0.5px; fill: rgb(174, 214, 241); fill-opacity: 1; stroke: rgb(255, 255, 255); stroke-opacity: 1;"/></g><g class="point" style="vector-effect: none; stroke-miterlimit: 2;"><path d="M111.99999999999997,112L68.60685057219564,95.99142200294582A46.25191873589163,46.25191873589163 0,0,0 68.60685057219564,128.00857799705418L111.99999999999997,112A0,0 0,0,1 111.99999999999997,112Z" style="opacity: 1; stroke-width: 0.5px; fill: rgb(174, 214, 241); fill-opacity: 1; stroke: rgb(255, 255, 255); stroke-opacity: 1;"/></g><g class="point" style="vector-effect: none; stroke-miterlimit: 2;"><path d="M111.99999999999997,112L98.79870396904552,83.36417524485826A31.532279909706535,31.532279909706535 0,0,0 83.36417524485822,98.79870396904556L111.99999999999997,112A0,0 0,0,1 111.99999999999997,112Z" style="opacity: 1; stroke-width: 0.5px; fill: rgb(174, 214, 241); fill-opacity: 1; stroke: rgb(255, 255, 255); stroke-opacity: 1;"/></g></g></g><g class="trace bars" style="opacity: 1;"><g class="points"><g class="point" style="vector-effect: none; stroke-miterlimit: 2;"><path d="M118.94734282513105,93.16840325277037L126.65473683113116,72.27659763063015A42.340406320541746,42.340406320541746 0,0,0 97.34526316886878,72.27659763063015L105.0526571748689,93.16840325277037A20.072234762979676,20.072234762979676 0,0,1 118.94734282513105,93.16840325277037Z" style="opacity: 1; stroke-width: 0.5px; fill: rgb(46, 134, 193); fill-opacity: 1; stroke: rgb(255, 255, 255); stroke-opacity: 1;"/></g><g class="point" style="vector-effect: none; stroke-miterlimit: 2;"><path d="M124.49506607922939,106.23969563828865L142.34961187324052,98.00863728601782A33.419413092550776,33.419413092550776 0,0,0 125.99136271398217,81.65038812675947L117.76030436171133,99.50493392077058A13.7589164785553,13.7589164785553 0,0,1 124.49506607922939,106.23969563828865Z" style="opacity: 1; stroke-width: 0.5px; fill: rgb(46, 134, 193); fill-opacity: 1; stroke: rgb(255, 255, 255); stroke-opacity: 1;"/></g><g class="point" style="vector-effect: none; stroke-miterlimit: 2;"><path d="M128.28852641726183,118.00915464874586L133.08495020416305,119.7786488042066A22.47404063205417,22.47404063205417 0,0,0 133.08495020416308,104.22135119579342L128.28852641726183,105.99084535125415A17.361625282167036,17.361625282167036 0,0,1 128.28852641726183,118.00915464874586Z" style="opacity: 1; stroke-width: 0.5px; fill: rgb(46, 134, 193); fill-opacity: 1; stroke: rgb(255, 255, 255); stroke-opacity: 1;"/></g><g class="point" style="vector-effect: none; stroke-miterlimit: 2;"><path d="M132.75720649045613,157.02586155732297L154.8216142201036,204.88726180095486A102.28261851015797,102.28261851015797 0,0,0 204.88726180095483,154.82161422010358L157.02586155732297,132.75720649045613A49.58013544018057,49.58013544018057 0,0,1 132.75720649045613,157.02586155732297Z" style="opacity: 1; stroke-width: 0.5px; fill: rgb(46, 134, 193); fill-opacity: 1; stroke: rgb(255, 255, 255); stroke-opacity: 1;"/></g><g class="point" style="vector-effect: none; stroke-miterlimit: 2;"><path d="M97.09587137514612,152.39940840644988L77.98770965611038,204.19434715224898A98.26817155756204,98.26817155756204 0,0,0 146.01229034388956,204.19434715224898L126.90412862485383,152.39940840644988A43.060948081264094,43.060948081264094 0,0,1 97.09587137514612,152.39940840644988Z" style="opacity: 1; stroke-width: 0.5px; fill: rgb(46, 134, 193); fill-opacity: 1; stroke: rgb(255, 255, 255); stroke-opacity: 1;"/></g><g class="point" style="vector-effect: none; stroke-miterlimit: 2;"><path d="M87.7888619861315,123.16148750386465L79.90544124287702,126.79579424579225A35.34085778781037,35.34085778781037 0,0,0 97.20420575420772,144.09455875712297L100.83851249613534,136.2111380138685A26.66004514672685,26.66004514672685 0,0,1 87.7888619861315,123.16148750386465Z" style="opacity: 1; stroke-width: 0.5px; fill: rgb(46, 134, 193); fill-opacity: 1; stroke: rgb(255, 255, 255); stroke-opacity: 1;"/></g><g class="point" style="vector-effect: none; stroke-miterlimit: 2;"><path d="M68.60685057219564,95.99142200294582L39.08792028636731,85.1013136770566A77.71557562076747,77.71557562076747 0,0,0 39.08792028636731,138.89868632294343L68.60685057219564,128.00857799705418A46.25191873589163,46.25191873589163 0,0,1 68.60685057219564,95.99142200294582Z" style="opacity: 1; stroke-width: 0.5px; fill: rgb(46, 134, 193); fill-opacity: 1; stroke: rgb(255, 255, 255); stroke-opacity: 1;"/></g><g class="point" style="vector-effect: none; stroke-miterlimit: 2;"><path d="M98.79870396904552,83.36417524485826L86.574217655289,56.847214563002304A60.731376975169276,60.731376975169276 0,0,0 56.84721456300227,86.57421765528905L83.36417524485822,98.79870396904556A31.532279909706535,31.532279909706535 0,0,1 98.79870396904552,83.36417524485826Z" style="opacity: 1; stroke-width: 0.5px; fill: rgb(46, 134, 193); fill-opacity: 1; stroke: rgb(255, 255, 255); stroke-opacity: 1;"/></g></g></g><g class="trace bars" style="opacity: 1;"><g class="points"><g class="point" style="vector-effect: none; stroke-miterlimit: 2;"><path d="M126.65473683113116,72.27659763063015L127.39103641259805,70.28077028306052A44.46772009029344,44.46772009029344 0,0,0 96.6089635874019,70.28077028306052L97.34526316886878,72.27659763063015A42.340406320541746,42.340406320541746 0,0,1 126.65473683113116,72.27659763063015Z" style="opacity: 1; stroke-width: 0.5px; fill: rgb(26, 82, 118); fill-opacity: 1; stroke: rgb(255, 255, 255); stroke-opacity: 1;"/></g><g class="point" style="vector-effect: none; stroke-miterlimit: 2;"><path d="M142.34961187324052,98.00863728601782L143.6271622703687,97.41967848594258A34.82618510158012,34.82618510158012 0,0,0 126.5803215140574,80.37283772963127L125.99136271398217,81.65038812675947A33.419413092550776,33.419413092550776 0,0,1 142.34961187324052,98.00863728601782Z" style="opacity: 1; stroke-width: 0.5px; fill: rgb(26, 82, 118); fill-opacity: 1; stroke: rgb(255, 255, 255); stroke-opacity: 1;"/></g><g class="point" style="vector-effect: none; stroke-miterlimit: 2;"><path d="M133.08495020416305,119.7786488042066L133.1815224951745,119.81427620330983A22.57697516930022,22.57697516930022 0,0,0 133.1815224951745,104.18572379669017L133.08495020416308,104.22135119579342A22.47404063205417,22.47404063205417 0,0,1 133.08495020416305,119.7786488042066Z" style="opacity: 1; stroke-width: 0.5px; fill: rgb(26, 82, 118); fill-opacity: 1; stroke: rgb(255, 255, 255); stroke-opacity: 1;"/></g><g class="point" style="vector-effect: none; stroke-miterlimit: 2;"><path d="M154.8216142201036,204.88726180095486L156.54539607398232,208.6264336949886A106.39999999999996,106.39999999999996 0,0,0 208.62643369498858,156.54539607398232L204.88726180095483,154.82161422010358A102.28261851015797,102.28261851015797 0,0,1 154.8216142201036,204.88726180095486Z" style="opacity: 1; stroke-width: 0.5px; fill: rgb(26, 82, 118); fill-opacity: 1; stroke: rgb(255, 255, 255); stroke-opacity: 1;"/></g><g class="point" style="vector-effect: none; stroke-miterlimit: 2;"><path d="M77.98770965611038,204.19434715224898L76.9188876830133,207.091515882592A101.35620767494353,101.35620767494353 0,0,0 147.08111231698666,207.091515882592L146.01229034388956,204.19434715224898A98.26817155756204,98.26817155756204 0,0,1 77.98770965611038,204.19434715224898Z" style="opacity: 1; stroke-width: 0.5px; fill: rgb(26, 82, 118); fill-opacity: 1; stroke: rgb(255, 255, 255); stroke-opacity: 1;"/></g><g class="point" style="vector-effect: none; stroke-miterlimit: 2;"><path d="M79.90544124287702,126.79579424579225L79.74964241395895,126.86761848970387A35.51241534988712,35.51241534988712 0,0,0 97.13238151029611,144.25035758604105L97.20420575420772,144.09455875712297A35.34085778781037,35.34085778781037 0,0,1 79.90544124287702,126.79579424579225Z" style="opacity: 1; stroke-width: 0.5px; fill: rgb(26, 82, 118); fill-opacity: 1; stroke: rgb(255, 255, 255); stroke-opacity: 1;"/></g><g class="point" style="vector-effect: none; stroke-miterlimit: 2;"><path d="M39.08792028636731,85.1013136770566L37.54276363018435,84.53127529140482A79.36252821670426,79.36252821670426 0,0,0 37.54276363018437,139.4687247085952L39.08792028636731,138.89868632294343A77.71557562076747,77.71557562076747 0,0,1 39.08792028636731,85.1013136770566Z" style="opacity: 1; stroke-width: 0.5px; fill: rgb(26, 82, 118); fill-opacity: 1; stroke: rgb(255, 255, 255); stroke-opacity: 1;"/></g><g class="point" style="vector-effect: none; stroke-miterlimit: 2;"><path d="M86.574217655289,56.847214563002304L85.98525885521377,55.56966416587411A62.13814898419862,62.13814898419862 0,0,0 55.56966416587407,85.98525885521383L56.84721456300227,86.57421765528905A60.731376975169276,60.731376975169276 0,0,1 86.574217655289,56.847214563002304Z" style="opacity: 1; stroke-width: 0.5px; fill: rgb(26, 82, 118); fill-opacity: 1; stroke: rgb(255, 255, 255); stroke-opacity: 1;"/></g></g></g><g class="trace bars" style="opacity: 1;"><g class="points"><g class="point" style="vector-effect: none; stroke-miterlimit: 2;"><path d="M37.54276363018435,84.53127529140482L37.51057286651388,84.51939949170374A79.3968397291196,79.3968397291196 0,0,0 37.5105728665139,139.48060050829628L37.54276363018437,139.4687247085952A79.36252821670426,79.36252821670426 0,0,1 37.54276363018435,84.53127529140482Z" style="opacity: 1; stroke-width: 0.5px; fill: rgb(230, 126, 34); fill-opacity: 1; stroke: rgb(255, 255, 255); stroke-opacity: 1;"/></g></g></g></g><g class="scatterlayer"/></g><g class="polarsublayer angular-line"><path d="M111.99999999999997,0A111.99999999999997,111.99999999999997 0,1,0 -111.99999999999997,-1.3716044150450352e-14A111.99999999999997,111.99999999999997 0,1,0 111.99999999999997,2.7432088300900705e-14Z" transform="translate(232.26000000000002,392)" stroke-width="1" style="fill: none; stroke: rgb(235, 240, 248); stroke-opacity: 1;"/></g><g class="polarsublayer radial-line"><line x1="0" y1="0" x2="111.99999999999997" y2="0" transform="translate(232.26000000000002,392)" stroke-width="1" style="fill: none; stroke: rgb(235, 240, 248); stroke-opacity: 1;"/></g><g class="polarsublayer angular-axis"><g class="angularaxistick"><text text-anchor="middle" x="1.7757378587636624e-16" y="-5.300000000000001" transform="translate(232.26000000000002,280)" style="font-family: 'Open Sans', verdana, arial, sans-serif; font-size: 12px; fill: rgb(42, 63, 95); fill-opacity: 1; white-space: pre;">N</text></g><g class="angularaxistick"><text text-anchor="start" x="2.050609665440988" y="-0.7778174593052025" transform="translate(311.4559594928933,312.8040405071067)" style="font-family: 'Open Sans', verdana, arial, sans-serif; font-size: 12px; fill: rgb(42, 63, 95); fill-opacity: 1; white-space: pre;">NE</text></g><g class="angularaxistick"><text text-anchor="start" x="2.9000000000000004" y="4.199999999999999" transform="translate(344.26,392)" style="font-family: 'Open Sans', verdana, arial, sans-serif; font-size: 12px; fill: rgb(42, 63, 95); fill-opacity: 1; white-space: pre;">E</text></g><g class="angularaxistick"><text text-anchor="start" x="2.050609665440988" y="13.505739520663056" transform="translate(311.4559594928933,471.1959594928933)" style="font-family: 'Open Sans', verdana, arial, sans-serif; font-size: 12px; fill: rgb(42, 63, 95); fill-opacity: 1; white-space: pre;">SE</text></g><g class="angularaxistick"><text text-anchor="middle" x="1.7757378587636624e-16" y="14.9" transform="translate(232.26000000000002,504)" style="font-family: 'Open Sans', verdana, arial, sans-serif; font-size: 12px; fill: rgb(42, 63, 95); fill-opacity: 1; white-space: pre;">S</text></g><g class="angularaxistick"><text text-anchor="end" x="-2.0506096654409878" y="13.505739520663058" transform="translate(153.0640405071067,471.1959594928933)" style="font-family: 'Open Sans', verdana, arial, sans-serif; font-size: 12px; fill: rgb(42, 63, 95); fill-opacity: 1; white-space: pre;">SW</text></g><g class="angularaxistick"><text text-anchor="end" x="-2.9000000000000004" y="4.200000000000001" transform="translate(120.26000000000005,392)" style="font-family: 'Open Sans', verdana, arial, sans-serif; font-size: 12px; fill: rgb(42, 63, 95); fill-opacity: 1; white-space: pre;">W</text></g><g class="angularaxistick"><text text-anchor="end" x="-2.0506096654409887" y="-0.7778174593052021" transform="translate(153.0640405071067,312.8040405071067)" style="font-family: 'Open Sans', verdana, arial, sans-serif; font-size: 12px; fill: rgb(42, 63, 95); fill-opacity: 1; white-space: pre;">NW</text></g></g><g class="polarsublayer radial-axis" transform="translate(232.26000000000002,392)"><g class="xtick"><text text-anchor="start" x="0" y="14.9" transform=" rotate(90,0,8.9)" style="font-family: 'Open Sans', verdana, arial, sans-serif; font-size: 12px; fill: rgb(42, 63, 95); fill-opacity: 1; white-space: pre;">0</text></g><g class="xtick"><text text-anchor="start" x="0" y="14.9" transform="translate(17.16,0) rotate(90,0,8.9)" style="font-family: 'Open Sans', verdana, arial, sans-serif; font-size: 12px; fill: rgb(42, 63, 95); fill-opacity: 1; white-space: pre;">500</text></g><g class="xtick"><text text-anchor="start" x="0" y="14.9" transform="translate(34.31,0) rotate(90,0,8.9)" style="font-family: 'Open Sans', verdana, arial, sans-serif; font-size: 12px; fill: rgb(42, 63, 95); fill-opacity: 1; white-space: pre;">1000</text></g><g class="xtick"><text text-anchor="start" x="0" y="14.9" transform="translate(51.47,0) rotate(90,0,8.9)" style="font-family: 'Open Sans', verdana, arial, sans-serif; font-size: 12px; fill: rgb(42, 63, 95); fill-opacity: 1; white-space: pre;">1500</text></g><g class="xtick"><text text-anchor="start" x="0" y="14.9" transform="translate(68.62,0) rotate(90,0,8.9)" style="font-family: 'Open Sans', verdana, arial, sans-serif; font-size: 12px; fill: rgb(42, 63, 95); fill-opacity: 1; white-space: pre;">2000</text></g><g class="xtick"><text text-anchor="start" x="0" y="14.9" transform="translate(85.78,0) rotate(90,0,8.9)" style="font-family: 'Open Sans', verdana, arial, sans-serif; font-size: 12px; fill: rgb(42, 63, 95); fill-opacity: 1; white-space: pre;">2500</text></g><g class="xtick"><text text-anchor="start" x="0" y="14.9" transform="translate(102.93,0) rotate(90,0,8.9)" style="font-family: 'Open Sans', verdana, arial, sans-serif; font-size: 12px; fill: rgb(42, 63, 95); fill-opacity: 1; white-space: pre;">3000</text></g></g></g><g class="polar2"><g class="polarsublayer draglayer"/><g class="polarsublayer plotbg"><path d="M111.99999999999997,0A111.99999999999997,111.99999999999997 0,1,0 -111.99999999999997,-1.3716044150450352e-14A111.99999999999997,111.99999999999997 0,1,0 111.99999999999997,2.7432088300900705e-14Z" transform="translate(589.74,392)" style="fill: rgb(255, 255, 255); fill-opacity: 1;"/></g><g class="polarsublayer backplot"><g class="maplayer"/></g><g class="polarsublayer angular-grid" style="fill: none;"><path class="angularaxisgrid" d="M589.74,392L589.74,280" style="stroke: rgb(235, 240, 248); stroke-opacity: 1; stroke-width: 1px;"/><path class="angularaxisgrid" d="M589.74,392L668.9359594928933,312.8040405071067" style="stroke: rgb(235, 240, 248); stroke-opacity: 1; stroke-width: 1px;"/><path class="angularaxisgrid" d="M589.74,392L701.74,392" style="stroke: rgb(235, 240, 248); stroke-opacity: 1; stroke-width: 1px;"/><path class="angularaxisgrid" d="M589.74,392L668.9359594928933,471.1959594928933" style="stroke: rgb(235, 240, 248); stroke-opacity: 1; stroke-width: 1px;"/><path class="angularaxisgrid" d="M589.74,392L589.74,504" style="stroke: rgb(235, 240, 248); stroke-opacity: 1; stroke-width: 1px;"/><path class="angularaxisgrid" d="M589.74,392L510.54404050710673,471.1959594928933" style="stroke: rgb(235, 240, 248); stroke-opacity: 1; stroke-width: 1px;"/><path class="angularaxisgrid" d="M589.74,392L477.74,392" style="stroke: rgb(235, 240, 248); stroke-opacity: 1; stroke-width: 1px;"/><path class="angularaxisgrid" d="M589.74,392L510.5440405071067,312.8040405071067" style="stroke: rgb(235, 240, 248); stroke-opacity: 1; stroke-width: 1px;"/></g><g class="polarsublayer radial-grid" transform="translate(589.74,392)" style="fill: none;"><path class="xgrid" d="M17.47,0A17.47,17.47 0,1,0 -17.47,-2.139457958110426e-15A17.47,17.47 0,1,0 17.47,4.278915916220852e-15Z" style="stroke: rgb(235, 240, 248); stroke-opacity: 1; stroke-width: 1px;"/><path class="xgrid" d="M34.94,0A34.94,34.94 0,1,0 -34.94,-4.278915916220852e-15A34.94,34.94 0,1,0 34.94,8.557831832441704e-15Z" style="stroke: rgb(235, 240, 248); stroke-opacity: 1; stroke-width: 1px;"/><path class="xgrid" d="M52.41,0A52.41,52.41 0,1,0 -52.41,-6.418373874331277e-15A52.41,52.41 0,1,0 52.41,1.2836747748662555e-14Z" style="stroke: rgb(235, 240, 248); stroke-opacity: 1; stroke-width: 1px;"/><path class="xgrid" d="M69.89,0A69.89,69.89 0,1,0 -69.89,-8.559056479240852e-15A69.89,69.89 0,1,0 69.89,1.7118112958481704e-14Z" style="stroke: rgb(235, 240, 248); stroke-opacity: 1; stroke-width: 1px;"/><path class="xgrid" d="M87.36,0A87.36,87.36 0,1,0 -87.36,-1.0698514437351277e-14A87.36,87.36 0,1,0 87.36,2.1397028874702554e-14Z" style="stroke: rgb(235, 240, 248); stroke-opacity: 1; stroke-width: 1px;"/><path class="xgrid" d="M104.83,0A104.83,104.83 0,1,0 -104.83,-1.2837972395461703e-14A104.83,104.83 0,1,0 104.83,2.5675944790923406e-14Z" style="stroke: rgb(235, 240, 248); stroke-opacity: 1; stroke-width: 1px;"/></g><g class="polarsublayer frontplot" transform="translate(477.74000000000007,280)" clip-path="url(#clipcd6895polar2-for-traces)"><g class="barlayer"><g class="trace bars" style="opacity: 1;"><g class="points"><g class="point" style="vector-effect: none; stroke-miterlimit: 2;"><path d="M111.99999999999994,112L121.36091483472474,86.62613004859577A27.0455172413793,27.0455172413793 0,0,0 102.63908516527515,86.62613004859577L111.99999999999994,112A0,0 0,0,1 111.99999999999994,112Z" style="opacity: 1; stroke-width: 0.5px; fill: rgb(174, 214, 241); fill-opacity: 1; stroke: rgb(255, 255, 255); stroke-opacity: 1;"/></g><g class="point" style="vector-effect: none; stroke-miterlimit: 2;"><path d="M111.99999999999994,112L137.9891787179624,100.01882450423923A28.61793103448275,28.61793103448275 0,0,0 123.98117549576071,86.01082128203754L111.99999999999994,112A0,0 0,0,1 111.99999999999994,112Z" style="opacity: 1; stroke-width: 0.5px; fill: rgb(174, 214, 241); fill-opacity: 1; stroke: rgb(255, 255, 255); stroke-opacity: 1;"/></g><g class="point" style="vector-effect: none; stroke-miterlimit: 2;"><path d="M111.99999999999994,112L143.63538049496773,123.67090803037395A33.71954022988505,33.71954022988505 0,0,0 143.63538049496773,100.32909196962606L111.99999999999994,112A0,0 0,0,1 111.99999999999994,112Z" style="opacity: 1; stroke-width: 0.5px; fill: rgb(174, 214, 241); fill-opacity: 1; stroke: rgb(255, 255, 255); stroke-opacity: 1;"/></g><g class="point" style="vector-effect: none; stroke-miterlimit: 2;"><path d="M111.99999999999994,112L134.93831889786674,161.75706010960332A54.789885057471245,54.789885057471245 0,0,0 161.7570601096033,134.93831889786674L111.99999999999994,112A0,0 0,0,1 111.99999999999994,112Z" style="opacity: 1; stroke-width: 0.5px; fill: rgb(174, 214, 241); fill-opacity: 1; stroke: rgb(255, 255, 255); stroke-opacity: 1;"/></g><g class="point" style="vector-effect: none; stroke-miterlimit: 2;"><path d="M111.99999999999994,112L96.30172163375602,154.55204547406032A45.355402298850564,45.355402298850564 0,0,0 127.69827836624387,154.55204547406032L111.99999999999994,112A0,0 0,0,1 111.99999999999994,112Z" style="opacity: 1; stroke-width: 0.5px; fill: rgb(174, 214, 241); fill-opacity: 1; stroke: rgb(255, 255, 255); stroke-opacity: 1;"/></g><g class="point" style="vector-effect: none; stroke-miterlimit: 2;"><path d="M111.99999999999994,112L83.12313475781943,125.31241721751196A31.79770114942528,31.79770114942528 0,0,0 98.687582782488,140.87686524218051L111.99999999999994,112A0,0 0,0,1 111.99999999999994,112Z" style="opacity: 1; stroke-width: 0.5px; fill: rgb(174, 214, 241); fill-opacity: 1; stroke: rgb(255, 255, 255); stroke-opacity: 1;"/></g><g class="point" style="vector-effect: none; stroke-miterlimit: 2;"><path d="M111.99999999999994,112L81.31532005876693,100.67982392079792A32.70620689655171,32.70620689655171 0,0,0 81.31532005876693,123.3201760792021L111.99999999999994,112A0,0 0,0,1 111.99999999999994,112Z" style="opacity: 1; stroke-width: 0.5px; fill: rgb(174, 214, 241); fill-opacity: 1; stroke: rgb(255, 255, 255); stroke-opacity: 1;"/></g><g class="point" style="vector-effect: none; stroke-miterlimit: 2;"><path d="M111.99999999999994,112L102.5789047383761,91.56406459784148A22.50298850574712,22.50298850574712 0,0,0 91.56406459784142,102.57890473837615L111.99999999999994,112A0,0 0,0,1 111.99999999999994,112Z" style="opacity: 1; stroke-width: 0.5px; fill: rgb(174, 214, 241); fill-opacity: 1; stroke: rgb(255, 255, 255); stroke-opacity: 1;"/></g></g></g><g class="trace bars" style="opacity: 1;"><g class="points"><g class="point" style="vector-effect: none; stroke-miterlimit: 2;"><path d="M121.36091483472474,86.62613004859577L131.31444572487786,59.64590398915691A55.80321839080458,55.80321839080458 0,0,0 92.68555427512203,59.64590398915691L102.63908516527515,86.62613004859577A27.0455172413793,27.0455172413793 0,0,1 121.36091483472474,86.62613004859577Z" style="opacity: 1; stroke-width: 0.5px; fill: rgb(46, 134, 193); fill-opacity: 1; stroke: rgb(255, 255, 255); stroke-opacity: 1;"/></g><g class="point" style="vector-effect: none; stroke-miterlimit: 2;"><path d="M137.9891787179624,100.01882450423923L147.88981822956714,95.45456717252085A39.51999999999999,39.51999999999999 0,0,0 128.5454328274791,76.1101817704328L123.98117549576071,86.01082128203754A28.61793103448275,28.61793103448275 0,0,1 137.9891787179624,100.01882450423923Z" style="opacity: 1; stroke-width: 0.5px; fill: rgb(46, 134, 193); fill-opacity: 1; stroke: rgb(255, 255, 255); stroke-opacity: 1;"/></g><g class="point" style="vector-effect: none; stroke-miterlimit: 2;"><path d="M143.63538049496773,123.67090803037395L152.71620992202068,127.02100287432586A43.39862068965516,43.39862068965516 0,0,0 152.71620992202068,96.97899712567416L143.63538049496773,100.32909196962606A33.71954022988505,33.71954022988505 0,0,1 143.63538049496773,123.67090803037395Z" style="opacity: 1; stroke-width: 0.5px; fill: rgb(46, 134, 193); fill-opacity: 1; stroke: rgb(255, 255, 255); stroke-opacity: 1;"/></g><g class="point" style="vector-effect: none; stroke-miterlimit: 2;"><path d="M134.93831889786674,161.75706010960332L155.7261703990585,206.84939583393134A104.44321839080456,104.44321839080456 0,0,0 206.84939583393128,155.7261703990585L161.7570601096033,134.93831889786674A54.789885057471245,54.789885057471245 0,0,1 134.93831889786674,161.75706010960332Z" style="opacity: 1; stroke-width: 0.5px; fill: rgb(46, 134, 193); fill-opacity: 1; stroke: rgb(255, 255, 255); stroke-opacity: 1;"/></g><g class="point" style="vector-effect: none; stroke-miterlimit: 2;"><path d="M96.30172163375602,154.55204547406032L77.49523252781665,205.52926482087372A99.6910344827586,99.6910344827586 0,0,0 146.50476747218323,205.52926482087372L127.69827836624387,154.55204547406032A45.355402298850564,45.355402298850564 0,0,1 96.30172163375602,154.55204547406032Z" style="opacity: 1; stroke-width: 0.5px; fill: rgb(46, 134, 193); fill-opacity: 1; stroke: rgb(255, 255, 255); stroke-opacity: 1;"/></g><g class="point" style="vector-effect: none; stroke-miterlimit: 2;"><path d="M83.12313475781943,125.31241721751196L50.15273587141773,140.51197929333057A68.1029885057471,68.1029885057471 0,0,0 83.4880207066694,173.84726412858222L98.687582782488,140.87686524218051A31.79770114942528,31.79770114942528 0,0,1 83.12313475781943,125.31241721751196Z" style="opacity: 1; stroke-width: 0.5px; fill: rgb(46, 134, 193); fill-opacity: 1; stroke: rgb(255, 255, 255); stroke-opacity: 1;"/></g><g class="point" style="vector-effect: none; stroke-miterlimit: 2;"><path d="M81.31532005876693,100.67982392079792L57.61337177082732,91.93571355192707A57.96965517241377,57.96965517241377 0,0,0 57.61337177082733,132.06428644807295L81.31532005876693,123.3201760792021A32.70620689655171,32.70620689655171 0,0,1 81.31532005876693,100.67982392079792Z" style="opacity: 1; stroke-width: 0.5px; fill: rgb(46, 134, 193); fill-opacity: 1; stroke: rgb(255, 255, 255); stroke-opacity: 1;"/></g><g class="point" style="vector-effect: none; stroke-miterlimit: 2;"><path d="M102.5789047383761,91.56406459784148L79.50892457132514,41.52140911771109A77.60735632183906,77.60735632183906 0,0,0 41.521409117711016,79.50892457132522L91.56406459784142,102.57890473837615A22.50298850574712,22.50298850574712 0,0,1 102.5789047383761,91.56406459784148Z" style="opacity: 1; stroke-width: 0.5px; fill: rgb(46, 134, 193); fill-opacity: 1; stroke: rgb(255, 255, 255); stroke-opacity: 1;"/></g></g></g><g class="trace bars" style="opacity: 1;"><g class="points"><g class="point" style="vector-effect: none; stroke-miterlimit: 2;"><path d="M131.31444572487786,59.64590398915691L135.78930165362226,47.51627623460966A68.73195402298849,68.73195402298849 0,0,0 88.21069834637763,47.51627623460966L92.68555427512203,59.64590398915691A55.80321839080458,55.80321839080458 0,0,1 131.31444572487786,59.64590398915691Z" style="opacity: 1; stroke-width: 0.5px; fill: rgb(26, 82, 118); fill-opacity: 1; stroke: rgb(255, 255, 255); stroke-opacity: 1;"/></g><g class="point" style="vector-effect: none; stroke-miterlimit: 2;"><path d="M147.88981822956714,95.45456717252085L149.12739816851774,94.88403500605605A40.88275862068964,40.88275862068964 0,0,0 129.1159649939439,74.8726018314822L128.5454328274791,76.1101817704328A39.51999999999999,39.51999999999999 0,0,1 147.88981822956714,95.45456717252085Z" style="opacity: 1; stroke-width: 0.5px; fill: rgb(26, 82, 118); fill-opacity: 1; stroke: rgb(255, 255, 255); stroke-opacity: 1;"/></g><g class="point" style="vector-effect: none; stroke-miterlimit: 2;"><path d="M152.71620992202068,127.02100287432586L152.74899269973565,127.03309707953868A43.433563218390795,43.433563218390795 0,0,0 152.74899269973568,96.96690292046134L152.71620992202068,96.97899712567416A43.39862068965516,43.39862068965516 0,0,1 152.71620992202068,127.02100287432586Z" style="opacity: 1; stroke-width: 0.5px; fill: rgb(26, 82, 118); fill-opacity: 1; stroke: rgb(255, 255, 255); stroke-opacity: 1;"/></g><g class="point" style="vector-effect: none; stroke-miterlimit: 2;"><path d="M155.7261703990585,206.84939583393134L156.03338002715492,207.51578503182782A105.17701149425284,105.17701149425284 0,0,0 207.51578503182776,156.03338002715492L206.84939583393128,155.7261703990585A104.44321839080456,104.44321839080456 0,0,1 155.7261703990585,206.84939583393134Z" style="opacity: 1; stroke-width: 0.5px; fill: rgb(26, 82, 118); fill-opacity: 1; stroke: rgb(255, 255, 255); stroke-opacity: 1;"/></g><g class="point" style="vector-effect: none; stroke-miterlimit: 2;"><path d="M77.49523252781665,205.52926482087372L76.68492077855753,207.7257109277782A102.03218390804595,102.03218390804595 0,0,0 147.31507922144237,207.7257109277782L146.50476747218323,205.52926482087372A99.6910344827586,99.6910344827586 0,0,1 77.49523252781665,205.52926482087372Z" style="opacity: 1; stroke-width: 0.5px; fill: rgb(26, 82, 118); fill-opacity: 1; stroke: rgb(255, 255, 255); stroke-opacity: 1;"/></g><g class="point" style="vector-effect: none; stroke-miterlimit: 2;"><path d="M50.15273587141773,140.51197929333057L49.42288103562635,140.8484469812457A68.90666666666665,68.90666666666665 0,0,0 83.15155301875426,174.5771189643736L83.4880207066694,173.84726412858222A68.1029885057471,68.1029885057471 0,0,1 50.15273587141773,140.51197929333057Z" style="opacity: 1; stroke-width: 0.5px; fill: rgb(26, 82, 118); fill-opacity: 1; stroke: rgb(255, 255, 255); stroke-opacity: 1;"/></g><g class="point" style="vector-effect: none; stroke-miterlimit: 2;"><path d="M57.61337177082732,91.93571355192707L42.95947013222565,86.5296038217953A73.58896551724136,73.58896551724136 0,0,0 42.95947013222566,137.4703961782047L57.61337177082733,132.06428644807295A57.96965517241377,57.96965517241377 0,0,1 57.61337177082732,91.93571355192707Z" style="opacity: 1; stroke-width: 0.5px; fill: rgb(26, 82, 118); fill-opacity: 1; stroke: rgb(255, 255, 255); stroke-opacity: 1;"/></g><g class="point" style="vector-effect: none; stroke-miterlimit: 2;"><path d="M79.50892457132514,41.52140911771109L69.94153901060776,20.768145526078058A100.4597701149425,100.4597701149425 0,0,0 20.768145526077987,69.94153901060784L41.521409117711016,79.50892457132522A77.60735632183906,77.60735632183906 0,0,1 79.50892457132514,41.52140911771109Z" style="opacity: 1; stroke-width: 0.5px; fill: rgb(26, 82, 118); fill-opacity: 1; stroke: rgb(255, 255, 255); stroke-opacity: 1;"/></g></g></g><g class="trace bars" style="opacity: 1;"><g class="points"><g class="point" style="vector-effect: none; stroke-miterlimit: 2;"><path d="M135.78930165362226,47.51627623460966L137.27688889479947,43.48399457566559A73.02988505747125,73.02988505747125 0,0,0 86.72311110520042,43.48399457566559L88.21069834637763,47.51627623460966A68.73195402298849,68.73195402298849 0,0,1 135.78930165362226,47.51627623460966Z" style="opacity: 1; stroke-width: 0.5px; fill: rgb(230, 126, 34); fill-opacity: 1; stroke: rgb(255, 255, 255); stroke-opacity: 1;"/></g><g class="point" style="vector-effect: none; stroke-miterlimit: 2;"><path d="M152.74899269973565,127.03309707953868L152.78177547745065,127.0451912847515A43.46850574712642,43.46850574712642 0,0,0 152.78177547745065,96.95480871524852L152.74899269973568,96.96690292046134A43.433563218390795,43.433563218390795 0,0,1 152.74899269973565,127.03309707953868Z" style="opacity: 1; stroke-width: 0.5px; fill: rgb(230, 126, 34); fill-opacity: 1; stroke: rgb(255, 255, 255); stroke-opacity: 1;"/></g><g class="point" style="vector-effect: none; stroke-miterlimit: 2;"><path d="M76.68492077855753,207.7257109277782L76.67282657334471,207.7584937054932A102.06712643678158,102.06712643678158 0,0,0 147.32717342665518,207.7584937054932L147.31507922144237,207.7257109277782A102.03218390804595,102.03218390804595 0,0,1 76.68492077855753,207.7257109277782Z" style="opacity: 1; stroke-width: 0.5px; fill: rgb(230, 126, 34); fill-opacity: 1; stroke: rgb(255, 255, 255); stroke-opacity: 1;"/></g><g class="point" style="vector-effect: none; stroke-miterlimit: 2;"><path d="M49.42288103562635,140.8484469812457L49.39114821667891,140.86307601115504A68.94160919540228,68.94160919540228 0,0,0 83.1369239888449,174.60885178332106L83.15155301875426,174.5771189643736A68.90666666666665,68.90666666666665 0,0,1 49.42288103562635,140.8484469812457Z" style="opacity: 1; stroke-width: 0.5px; fill: rgb(230, 126, 34); fill-opacity: 1; stroke: rgb(255, 255, 255); stroke-opacity: 1;"/></g><g class="point" style="vector-effect: none; stroke-miterlimit: 2;"><path d="M42.95947013222565,86.5296038217953L37.9109223641168,84.6670962190206A78.97011494252871,78.97011494252871 0,0,0 37.910922364116814,139.33290378097942L42.95947013222566,137.4703961782047A73.58896551724136,73.58896551724136 0,0,1 42.95947013222565,86.5296038217953Z" style="opacity: 1; stroke-width: 0.5px; fill: rgb(230, 126, 34); fill-opacity: 1; stroke: rgb(255, 255, 255); stroke-opacity: 1;"/></g><g class="point" style="vector-effect: none; stroke-miterlimit: 2;"><path d="M69.94153901060776,20.768145526078058L67.45460392601763,15.37356630501138A106.39999999999996,106.39999999999996 0,0,0 15.373566305011309,67.45460392601771L20.768145526077987,69.94153901060784A100.4597701149425,100.4597701149425 0,0,1 69.94153901060776,20.768145526078058Z" style="opacity: 1; stroke-width: 0.5px; fill: rgb(230, 126, 34); fill-opacity: 1; stroke: rgb(255, 255, 255); stroke-opacity: 1;"/></g></g></g></g><g class="scatterlayer"/></g><g class="polarsublayer angular-line"><path d="M111.99999999999997,0A111.99999999999997,111.99999999999997 0,1,0 -111.99999999999997,-1.3716044150450352e-14A111.99999999999997,111.99999999999997 0,1,0 111.99999999999997,2.7432088300900705e-14Z" transform="translate(589.74,392)" stroke-width="1" style="fill: none; stroke: rgb(235, 240, 248); stroke-opacity: 1;"/></g><g class="polarsublayer radial-line"><line x1="0" y1="0" x2="111.99999999999997" y2="0" transform="translate(589.74,392)" stroke-width="1" style="fill: none; stroke: rgb(235, 240, 248); stroke-opacity: 1;"/></g><g class="polarsublayer angular-axis"><g class="angularaxistick"><text text-anchor="middle" x="1.7757378587636624e-16" y="-5.300000000000001" transform="translate(589.74,280)" style="font-family: 'Open Sans', verdana, arial, sans-serif; font-size: 12px; fill: rgb(42, 63, 95); fill-opacity: 1; white-space: pre;">N</text></g><g class="angularaxistick"><text text-anchor="start" x="2.050609665440988" y="-0.7778174593052025" transform="translate(668.9359594928933,312.8040405071067)" style="font-family: 'Open Sans', verdana, arial, sans-serif; font-size: 12px; fill: rgb(42, 63, 95); fill-opacity: 1; white-space: pre;">NE</text></g><g class="angularaxistick"><text text-anchor="start" x="2.9000000000000004" y="4.199999999999999" transform="translate(701.74,392)" style="font-family: 'Open Sans', verdana, arial, sans-serif; font-size: 12px; fill: rgb(42, 63, 95); fill-opacity: 1; white-space: pre;">E</text></g><g class="angularaxistick"><text text-anchor="start" x="2.050609665440988" y="13.505739520663056" transform="translate(668.9359594928933,471.1959594928933)" style="font-family: 'Open Sans', verdana, arial, sans-serif; font-size: 12px; fill: rgb(42, 63, 95); fill-opacity: 1; white-space: pre;">SE</text></g><g class="angularaxistick"><text text-anchor="middle" x="1.7757378587636624e-16" y="14.9" transform="translate(589.74,504)" style="font-family: 'Open Sans', verdana, arial, sans-serif; font-size: 12px; fill: rgb(42, 63, 95); fill-opacity: 1; white-space: pre;">S</text></g><g class="angularaxistick"><text text-anchor="end" x="-2.0506096654409878" y="13.505739520663058" transform="translate(510.54404050710673,471.1959594928933)" style="font-family: 'Open Sans', verdana, arial, sans-serif; font-size: 12px; fill: rgb(42, 63, 95); fill-opacity: 1; white-space: pre;">SW</text></g><g class="angularaxistick"><text text-anchor="end" x="-2.9000000000000004" y="4.200000000000001" transform="translate(477.74,392)" style="font-family: 'Open Sans', verdana, arial, sans-serif; font-size: 12px; fill: rgb(42, 63, 95); fill-opacity: 1; white-space: pre;">W</text></g><g class="angularaxistick"><text text-anchor="end" x="-2.0506096654409887" y="-0.7778174593052021" transform="translate(510.5440405071067,312.8040405071067)" style="font-family: 'Open Sans', verdana, arial, sans-serif; font-size: 12px; fill: rgb(42, 63, 95); fill-opacity: 1; white-space: pre;">NW</text></g></g><g class="polarsublayer radial-axis" transform="translate(589.74,392)"><g class="xtick"><text text-anchor="start" x="0" y="14.9" transform=" rotate(90,0,8.9)" style="font-family: 'Open Sans', verdana, arial, sans-serif; font-size: 12px; fill: rgb(42, 63, 95); fill-opacity: 1; white-space: pre;">0</text></g><g class="xtick"><text text-anchor="start" x="0" y="14.9" transform="translate(17.47,0) rotate(90,0,8.9)" style="font-family: 'Open Sans', verdana, arial, sans-serif; font-size: 12px; fill: rgb(42, 63, 95); fill-opacity: 1; white-space: pre;">500</text></g><g class="xtick"><text text-anchor="start" x="0" y="14.9" transform="translate(34.94,0) rotate(90,0,8.9)" style="font-family: 'Open Sans', verdana, arial, sans-serif; font-size: 12px; fill: rgb(42, 63, 95); fill-opacity: 1; white-space: pre;">1000</text></g><g class="xtick"><text text-anchor="start" x="0" y="14.9" transform="translate(52.41,0) rotate(90,0,8.9)" style="font-family: 'Open Sans', verdana, arial, sans-serif; font-size: 12px; fill: rgb(42, 63, 95); fill-opacity: 1; white-space: pre;">1500</text></g><g class="xtick"><text text-anchor="start" x="0" y="14.9" transform="translate(69.89,0) rotate(90,0,8.9)" style="font-family: 'Open Sans', verdana, arial, sans-serif; font-size: 12px; fill: rgb(42, 63, 95); fill-opacity: 1; white-space: pre;">2000</text></g><g class="xtick"><text text-anchor="start" x="0" y="14.9" transform="translate(87.36,0) rotate(90,0,8.9)" style="font-family: 'Open Sans', verdana, arial, sans-serif; font-size: 12px; fill: rgb(42, 63, 95); fill-opacity: 1; white-space: pre;">2500</text></g><g class="xtick"><text text-anchor="start" x="0" y="14.9" transform="translate(104.83,0) rotate(90,0,8.9)" style="font-family: 'Open Sans', verdana, arial, sans-serif; font-size: 12px; fill: rgb(42, 63, 95); fill-opacity: 1; white-space: pre;">3000</text></g></g></g><g class="polar3"><g class="polarsublayer draglayer"/><g class="polarsublayer plotbg"><path d="M111.99999999999997,0A111.99999999999997,111.99999999999997 0,1,0 -111.99999999999997,-1.3716044150450352e-14A111.99999999999997,111.99999999999997 0,1,0 111.99999999999997,2.7432088300900705e-14Z" transform="translate(232.26000000000002,700)" style="fill: rgb(255, 255, 255); fill-opacity: 1;"/></g><g class="polarsublayer backplot"><g class="maplayer"/></g><g class="polarsublayer angular-grid" style="fill: none;"><path class="angularaxisgrid" d="M232.26000000000002,700L232.26000000000002,588" style="stroke: rgb(235, 240, 248); stroke-opacity: 1; stroke-width: 1px;"/><path class="angularaxisgrid" d="M232.26000000000002,700L311.4559594928933,620.8040405071067" style="stroke: rgb(235, 240, 248); stroke-opacity: 1; stroke-width: 1px;"/><path class="angularaxisgrid" d="M232.26000000000002,700L344.26,700" style="stroke: rgb(235, 240, 248); stroke-opacity: 1; stroke-width: 1px;"/><path class="angularaxisgrid" d="M232.26000000000002,700L311.4559594928933,779.1959594928933" style="stroke: rgb(235, 240, 248); stroke-opacity: 1; stroke-width: 1px;"/><path class="angularaxisgrid" d="M232.26000000000002,700L232.26000000000002,812" style="stroke: rgb(235, 240, 248); stroke-opacity: 1; stroke-width: 1px;"/><path class="angularaxisgrid" d="M232.26000000000002,700L153.0640405071067,779.1959594928933" style="stroke: rgb(235, 240, 248); stroke-opacity: 1; stroke-width: 1px;"/><path class="angularaxisgrid" d="M232.26000000000002,700L120.26000000000005,700" style="stroke: rgb(235, 240, 248); stroke-opacity: 1; stroke-width: 1px;"/><path class="angularaxisgrid" d="M232.26000000000002,700L153.0640405071067,620.8040405071067" style="stroke: rgb(235, 240, 248); stroke-opacity: 1; stroke-width: 1px;"/></g><g class="polarsublayer radial-grid" transform="translate(232.26000000000002,700)" style="fill: none;"><path class="xgrid" d="M12.74,0A12.74,12.74 0,1,0 -12.74,-1.560200022113728e-15A12.74,12.74 0,1,0 12.74,3.120400044227456e-15Z" style="stroke: rgb(235, 240, 248); stroke-opacity: 1; stroke-width: 1px;"/><path class="xgrid" d="M25.48,0A25.48,25.48 0,1,0 -25.48,-3.120400044227456e-15A25.48,25.48 0,1,0 25.48,6.240800088454912e-15Z" style="stroke: rgb(235, 240, 248); stroke-opacity: 1; stroke-width: 1px;"/><path class="xgrid" d="M38.22,0A38.22,38.22 0,1,0 -38.22,-4.680600066341184e-15A38.22,38.22 0,1,0 38.22,9.361200132682368e-15Z" style="stroke: rgb(235, 240, 248); stroke-opacity: 1; stroke-width: 1px;"/><path class="xgrid" d="M50.96,0A50.96,50.96 0,1,0 -50.96,-6.240800088454912e-15A50.96,50.96 0,1,0 50.96,1.2481600176909823e-14Z" style="stroke: rgb(235, 240, 248); stroke-opacity: 1; stroke-width: 1px;"/><path class="xgrid" d="M63.7,0A63.7,63.7 0,1,0 -63.7,-7.80100011056864e-15A63.7,63.7 0,1,0 63.7,1.560200022113728e-14Z" style="stroke: rgb(235, 240, 248); stroke-opacity: 1; stroke-width: 1px;"/><path class="xgrid" d="M76.44,0A76.44,76.44 0,1,0 -76.44,-9.361200132682368e-15A76.44,76.44 0,1,0 76.44,1.8722400265364735e-14Z" style="stroke: rgb(235, 240, 248); stroke-opacity: 1; stroke-width: 1px;"/><path class="xgrid" d="M89.18,0A89.18,89.18 0,1,0 -89.18,-1.0921400154796097e-14A89.18,89.18 0,1,0 89.18,2.1842800309592194e-14Z" style="stroke: rgb(235, 240, 248); stroke-opacity: 1; stroke-width: 1px;"/><path class="xgrid" d="M101.92,0A101.92,101.92 0,1,0 -101.92,-1.2481600176909823e-14A101.92,101.92 0,1,0 101.92,2.4963200353819647e-14Z" style="stroke: rgb(235, 240, 248); stroke-opacity: 1; stroke-width: 1px;"/></g><g class="polarsublayer frontplot" transform="translate(120.26000000000005,588)" clip-path="url(#clipcd6895polar3-for-traces)"><g class="barlayer"><g class="trace bars" style="opacity: 1;"><g class="points"><g class="point" style="vector-effect: none; stroke-miterlimit: 2;"><path d="M111.99999999999997,112L122.51188003081174,83.50630236938565A30.37088122605363,30.37088122605363 0,0,0 101.4881199691882,83.50630236938565L111.99999999999997,112A0,0 0,0,1 111.99999999999997,112Z" style="opacity: 1; stroke-width: 0.5px; fill: rgb(174, 214, 241); fill-opacity: 1; stroke: rgb(255, 255, 255); stroke-opacity: 1;"/></g><g class="point" style="vector-effect: none; stroke-miterlimit: 2;"><path d="M111.99999999999997,112L130.55708808031147,103.44506521759249A20.43409961685823,20.43409961685823 0,0,0 120.5549347824075,93.4429119196885L111.99999999999997,112A0,0 0,0,1 111.99999999999997,112Z" style="opacity: 1; stroke-width: 0.5px; fill: rgb(174, 214, 241); fill-opacity: 1; stroke: rgb(255, 255, 255); stroke-opacity: 1;"/></g><g class="point" style="vector-effect: none; stroke-miterlimit: 2;"><path d="M111.99999999999997,112L149.1708891070514,125.71306497308079A39.61973180076627,39.61973180076627 0,0,0 149.1708891070514,98.28693502691922L111.99999999999997,112A0,0 0,0,1 111.99999999999997,112Z" style="opacity: 1; stroke-width: 0.5px; fill: rgb(174, 214, 241); fill-opacity: 1; stroke: rgb(255, 255, 255); stroke-opacity: 1;"/></g><g class="point" style="vector-effect: none; stroke-miterlimit: 2;"><path d="M111.99999999999997,112L132.57664488187544,156.6341931507742A49.148850574712625,49.148850574712625 0,0,0 156.63419315077417,132.57664488187544L111.99999999999997,112A0,0 0,0,1 111.99999999999997,112Z" style="opacity: 1; stroke-width: 0.5px; fill: rgb(174, 214, 241); fill-opacity: 1; stroke: rgb(255, 255, 255); stroke-opacity: 1;"/></g><g class="point" style="vector-effect: none; stroke-miterlimit: 2;"><path d="M111.99999999999997,112L93.80703984600277,161.31417635231324A52.56302681992335,52.56302681992335 0,0,0 130.1929601539972,161.31417635231324L111.99999999999997,112A0,0 0,0,1 111.99999999999997,112Z" style="opacity: 1; stroke-width: 0.5px; fill: rgb(174, 214, 241); fill-opacity: 1; stroke: rgb(255, 255, 255); stroke-opacity: 1;"/></g><g class="point" style="vector-effect: none; stroke-miterlimit: 2;"><path d="M111.99999999999997,112L70.07301296568019,131.3286057677337A46.16781609195401,46.16781609195401 0,0,0 92.67139423226627,153.92698703431978L111.99999999999997,112A0,0 0,0,1 111.99999999999997,112Z" style="opacity: 1; stroke-width: 0.5px; fill: rgb(174, 214, 241); fill-opacity: 1; stroke: rgb(255, 255, 255); stroke-opacity: 1;"/></g><g class="point" style="vector-effect: none; stroke-miterlimit: 2;"><path d="M111.99999999999997,112L65.10013863148876,94.69772766740546A49.98965517241378,49.98965517241378 0,0,0 65.10013863148878,129.30227233259455L111.99999999999997,112A0,0 0,0,1 111.99999999999997,112Z" style="opacity: 1; stroke-width: 0.5px; fill: rgb(174, 214, 241); fill-opacity: 1; stroke: rgb(255, 255, 255); stroke-opacity: 1;"/></g><g class="point" style="vector-effect: none; stroke-miterlimit: 2;"><path d="M111.99999999999997,112L96.86352561566545,79.16644889530917A36.15459770114941,36.15459770114941 0,0,0 79.16644889530914,96.8635256156655L111.99999999999997,112A0,0 0,0,1 111.99999999999997,112Z" style="opacity: 1; stroke-width: 0.5px; fill: rgb(174, 214, 241); fill-opacity: 1; stroke: rgb(255, 255, 255); stroke-opacity: 1;"/></g></g></g><g class="trace bars" style="opacity: 1;"><g class="points"><g class="point" style="vector-effect: none; stroke-miterlimit: 2;"><path d="M122.51188003081174,83.50630236938565L135.98684033876506,46.98082419859813A69.30268199233714,69.30268199233714 0,0,0 88.01315966123488,46.98082419859813L101.4881199691882,83.50630236938565A30.37088122605363,30.37088122605363 0,0,1 122.51188003081174,83.50630236938565Z" style="opacity: 1; stroke-width: 0.5px; fill: rgb(46, 134, 193); fill-opacity: 1; stroke: rgb(255, 255, 255); stroke-opacity: 1;"/></g><g class="point" style="vector-effect: none; stroke-miterlimit: 2;"><path d="M130.55708808031147,103.44506521759249L148.6976829119377,95.08213645274523A40.40957854406129,40.40957854406129 0,0,0 128.91786354725477,75.30231708806227L120.5549347824075,93.4429119196885A20.43409961685823,20.43409961685823 0,0,1 130.55708808031147,103.44506521759249Z" style="opacity: 1; stroke-width: 0.5px; fill: rgb(46, 134, 193); fill-opacity: 1; stroke: rgb(255, 255, 255); stroke-opacity: 1;"/></g><g class="point" style="vector-effect: none; stroke-miterlimit: 2;"><path d="M149.1708891070514,125.71306497308079L175.17855942761213,135.30780110858683A67.34080459770112,67.34080459770112 0,0,0 175.17855942761216,88.69219889141318L149.1708891070514,98.28693502691922A39.61973180076627,39.61973180076627 0,0,1 149.1708891070514,125.71306497308079Z" style="opacity: 1; stroke-width: 0.5px; fill: rgb(46, 134, 193); fill-opacity: 1; stroke: rgb(255, 255, 255); stroke-opacity: 1;"/></g><g class="point" style="vector-effect: none; stroke-miterlimit: 2;"><path d="M132.57664488187544,156.6341931507742L155.20135395106047,205.71098095419154A103.18965517241377,103.18965517241377 0,0,0 205.71098095419154,155.20135395106044L156.63419315077417,132.57664488187544A49.148850574712625,49.148850574712625 0,0,1 132.57664488187544,156.6341931507742Z" style="opacity: 1; stroke-width: 0.5px; fill: rgb(46, 134, 193); fill-opacity: 1; stroke: rgb(255, 255, 255); stroke-opacity: 1;"/></g><g class="point" style="vector-effect: none; stroke-miterlimit: 2;"><path d="M93.80703984600277,161.31417635231324L76.74287217853566,207.56862678456054A101.86475095785437,101.86475095785437 0,0,0 147.25712782146428,207.56862678456054L130.1929601539972,161.31417635231324A52.56302681992335,52.56302681992335 0,0,1 93.80703984600277,161.31417635231324Z" style="opacity: 1; stroke-width: 0.5px; fill: rgb(46, 134, 193); fill-opacity: 1; stroke: rgb(255, 255, 255); stroke-opacity: 1;"/></g><g class="point" style="vector-effect: none; stroke-miterlimit: 2;"><path d="M70.07301296568019,131.3286057677337L44.13473897811261,143.28631386134822A74.72969348659001,74.72969348659001 0,0,0 80.71368613865177,179.86526102188736L92.67139423226627,153.92698703431978A46.16781609195401,46.16781609195401 0,0,1 70.07301296568019,131.3286057677337Z" style="opacity: 1; stroke-width: 0.5px; fill: rgb(46, 134, 193); fill-opacity: 1; stroke: rgb(255, 255, 255); stroke-opacity: 1;"/></g><g class="point" style="vector-effect: none; stroke-miterlimit: 2;"><path d="M65.10013863148876,94.69772766740546L35.50685199835071,83.78018783674693A81.5325670498084,81.5325670498084 0,0,0 35.50685199835071,140.2198121632531L65.10013863148878,129.30227233259455A49.98965517241378,49.98965517241378 0,0,1 65.10013863148876,94.69772766740546Z" style="opacity: 1; stroke-width: 0.5px; fill: rgb(46, 134, 193); fill-opacity: 1; stroke: rgb(255, 255, 255); stroke-opacity: 1;"/></g><g class="point" style="vector-effect: none; stroke-miterlimit: 2;"><path d="M96.86352561566545,79.16644889530917L75.94553670257176,33.79182330242779A86.11877394636012,86.11877394636012 0,0,0 33.79182330242776,75.9455367025718L79.16644889530914,96.8635256156655A36.15459770114941,36.15459770114941 0,0,1 96.86352561566545,79.16644889530917Z" style="opacity: 1; stroke-width: 0.5px; fill: rgb(46, 134, 193); fill-opacity: 1; stroke: rgb(255, 255, 255); stroke-opacity: 1;"/></g></g></g><g class="trace bars" style="opacity: 1;"><g class="points"><g class="point" style="vector-effect: none; stroke-miterlimit: 2;"><path d="M135.98684033876506,46.98082419859813L139.10865705932494,38.51876970091568A78.3222222222222,78.3222222222222 0,0,0 84.891342940675,38.51876970091568L88.01315966123488,46.98082419859813A69.30268199233714,69.30268199233714 0,0,1 135.98684033876506,46.98082419859813Z" style="opacity: 1; stroke-width: 0.5px; fill: rgb(26, 82, 118); fill-opacity: 1; stroke: rgb(255, 255, 255); stroke-opacity: 1;"/></g><g class="point" style="vector-effect: none; stroke-miterlimit: 2;"><path d="M148.6976829119377,95.08213645274523L150.61817955865322,94.19677537177287A42.524329501915695,42.524329501915695 0,0,0 129.8032246282271,73.38182044134675L128.91786354725477,75.30231708806227A40.40957854406129,40.40957854406129 0,0,1 148.6976829119377,95.08213645274523Z" style="opacity: 1; stroke-width: 0.5px; fill: rgb(26, 82, 118); fill-opacity: 1; stroke: rgb(255, 255, 255); stroke-opacity: 1;"/></g><g class="point" style="vector-effect: none; stroke-miterlimit: 2;"><path d="M175.17855942761213,135.30780110858683L175.5610251676204,135.4489001694031A67.74846743295016,67.74846743295016 0,0,0 175.56102516762041,88.55109983059691L175.17855942761216,88.69219889141318A67.34080459770112,67.34080459770112 0,0,1 175.17855942761213,135.30780110858683Z" style="opacity: 1; stroke-width: 0.5px; fill: rgb(26, 82, 118); fill-opacity: 1; stroke: rgb(255, 255, 255); stroke-opacity: 1;"/></g><g class="point" style="vector-effect: none; stroke-miterlimit: 2;"><path d="M155.20135395106047,205.71098095419154L156.54539607398232,208.6264336949886A106.39999999999996,106.39999999999996 0,0,0 208.62643369498858,156.54539607398232L205.71098095419154,155.20135395106044A103.18965517241377,103.18965517241377 0,0,1 155.20135395106047,205.71098095419154Z" style="opacity: 1; stroke-width: 0.5px; fill: rgb(26, 82, 118); fill-opacity: 1; stroke: rgb(255, 255, 255); stroke-opacity: 1;"/></g><g class="point" style="vector-effect: none; stroke-miterlimit: 2;"><path d="M76.74287217853566,207.56862678456054L75.99328341794926,209.60047602835434A104.0304597701149,104.0304597701149 0,0,0 148.0067165820507,209.60047602835434L147.25712782146428,207.56862678456054A101.86475095785437,101.86475095785437 0,0,1 76.74287217853566,207.56862678456054Z" style="opacity: 1; stroke-width: 0.5px; fill: rgb(26, 82, 118); fill-opacity: 1; stroke: rgb(255, 255, 255); stroke-opacity: 1;"/></g><g class="point" style="vector-effect: none; stroke-miterlimit: 2;"><path d="M44.13473897811261,143.28631386134822L43.13978288403108,143.74499490329774A75.82528735632181,75.82528735632181 0,0,0 80.25500509670223,180.8602171159689L80.71368613865177,179.86526102188736A74.72969348659001,74.72969348659001 0,0,1 44.13473897811261,143.28631386134822Z" style="opacity: 1; stroke-width: 0.5px; fill: rgb(26, 82, 118); fill-opacity: 1; stroke: rgb(255, 255, 255); stroke-opacity: 1;"/></g><g class="point" style="vector-effect: none; stroke-miterlimit: 2;"><path d="M35.50685199835071,83.78018783674693L23.38746886183941,79.30911134713153A94.45038314176242,94.45038314176242 0,0,0 23.387468861839423,144.6908886528685L35.50685199835071,140.2198121632531A81.5325670498084,81.5325670498084 0,0,1 35.50685199835071,83.78018783674693Z" style="opacity: 1; stroke-width: 0.5px; fill: rgb(26, 82, 118); fill-opacity: 1; stroke: rgb(255, 255, 255); stroke-opacity: 1;"/></g><g class="point" style="vector-effect: none; stroke-miterlimit: 2;"><path d="M75.94553670257176,33.79182330242779L69.17199108308449,19.09886702936319A102.29789272030648,102.29789272030648 0,0,0 19.09886702936315,69.17199108308455L33.79182330242776,75.9455367025718A86.11877394636012,86.11877394636012 0,0,1 75.94553670257176,33.79182330242779Z" style="opacity: 1; stroke-width: 0.5px; fill: rgb(26, 82, 118); fill-opacity: 1; stroke: rgb(255, 255, 255); stroke-opacity: 1;"/></g></g></g><g class="trace bars" style="opacity: 1;"><g class="points"><g class="point" style="vector-effect: none; stroke-miterlimit: 2;"><path d="M139.10865705932494,38.51876970091568L139.26739350274323,38.0884957434064A78.78084291187737,78.78084291187737 0,0,0 84.73260649725671,38.0884957434064L84.891342940675,38.51876970091568A78.3222222222222,78.3222222222222 0,0,1 139.10865705932494,38.51876970091568Z" style="opacity: 1; stroke-width: 0.5px; fill: rgb(230, 126, 34); fill-opacity: 1; stroke: rgb(255, 255, 255); stroke-opacity: 1;"/></g><g class="point" style="vector-effect: none; stroke-miterlimit: 2;"><path d="M23.38746886183941,79.30911134713153L23.028907230581666,79.17683097761628A94.8325670498084,94.8325670498084 0,0,0 23.02890723058168,144.82316902238375L23.387468861839423,144.6908886528685A94.45038314176242,94.45038314176242 0,0,1 23.38746886183941,79.30911134713153Z" style="opacity: 1; stroke-width: 0.5px; fill: rgb(230, 126, 34); fill-opacity: 1; stroke: rgb(255, 255, 255); stroke-opacity: 1;"/></g><g class="point" style="vector-effect: none; stroke-miterlimit: 2;"><path d="M69.17199108308449,19.09886702936319L68.9159830596708,18.543542697782783A102.90938697318005,102.90938697318005 0,0,0 18.543542697782755,68.91598305967085L19.09886702936315,69.17199108308455A102.29789272030648,102.29789272030648 0,0,1 69.17199108308449,19.09886702936319Z" style="opacity: 1; stroke-width: 0.5px; fill: rgb(230, 126, 34); fill-opacity: 1; stroke: rgb(255, 255, 255); stroke-opacity: 1;"/></g></g></g></g><g class="scatterlayer"/></g><g class="polarsublayer angular-line"><path d="M111.99999999999997,0A111.99999999999997,111.99999999999997 0,1,0 -111.99999999999997,-1.3716044150450352e-14A111.99999999999997,111.99999999999997 0,1,0 111.99999999999997,2.7432088300900705e-14Z" transform="translate(232.26000000000002,700)" stroke-width="1" style="fill: none; stroke: rgb(235, 240, 248); stroke-opacity: 1;"/></g><g class="polarsublayer radial-line"><line x1="0" y1="0" x2="111.99999999999997" y2="0" transform="translate(232.26000000000002,700)" stroke-width="1" style="fill: none; stroke: rgb(235, 240, 248); stroke-opacity: 1;"/></g><g class="polarsublayer angular-axis"><g class="angularaxistick"><text text-anchor="middle" x="1.7757378587636624e-16" y="-5.300000000000001" transform="translate(232.26000000000002,588)" style="font-family: 'Open Sans', verdana, arial, sans-serif; font-size: 12px; fill: rgb(42, 63, 95); fill-opacity: 1; white-space: pre;">N</text></g><g class="angularaxistick"><text text-anchor="start" x="2.050609665440988" y="-0.7778174593052025" transform="translate(311.4559594928933,620.8040405071067)" style="font-family: 'Open Sans', verdana, arial, sans-serif; font-size: 12px; fill: rgb(42, 63, 95); fill-opacity: 1; white-space: pre;">NE</text></g><g class="angularaxistick"><text text-anchor="start" x="2.9000000000000004" y="4.199999999999999" transform="translate(344.26,700)" style="font-family: 'Open Sans', verdana, arial, sans-serif; font-size: 12px; fill: rgb(42, 63, 95); fill-opacity: 1; white-space: pre;">E</text></g><g class="angularaxistick"><text text-anchor="start" x="2.050609665440988" y="13.505739520663056" transform="translate(311.4559594928933,779.1959594928933)" style="font-family: 'Open Sans', verdana, arial, sans-serif; font-size: 12px; fill: rgb(42, 63, 95); fill-opacity: 1; white-space: pre;">SE</text></g><g class="angularaxistick"><text text-anchor="middle" x="1.7757378587636624e-16" y="14.9" transform="translate(232.26000000000002,812)" style="font-family: 'Open Sans', verdana, arial, sans-serif; font-size: 12px; fill: rgb(42, 63, 95); fill-opacity: 1; white-space: pre;">S</text></g><g class="angularaxistick"><text text-anchor="end" x="-2.0506096654409878" y="13.505739520663058" transform="translate(153.0640405071067,779.1959594928933)" style="font-family: 'Open Sans', verdana, arial, sans-serif; font-size: 12px; fill: rgb(42, 63, 95); fill-opacity: 1; white-space: pre;">SW</text></g><g class="angularaxistick"><text text-anchor="end" x="-2.9000000000000004" y="4.200000000000001" transform="translate(120.26000000000005,700)" style="font-family: 'Open Sans', verdana, arial, sans-serif; font-size: 12px; fill: rgb(42, 63, 95); fill-opacity: 1; white-space: pre;">W</text></g><g class="angularaxistick"><text text-anchor="end" x="-2.0506096654409887" y="-0.7778174593052021" transform="translate(153.0640405071067,620.8040405071067)" style="font-family: 'Open Sans', verdana, arial, sans-serif; font-size: 12px; fill: rgb(42, 63, 95); fill-opacity: 1; white-space: pre;">NW</text></g></g><g class="polarsublayer radial-axis" transform="translate(232.26000000000002,700)"><g class="xtick"><text text-anchor="start" x="0" y="14.9" transform=" rotate(90,0,8.9)" style="font-family: 'Open Sans', verdana, arial, sans-serif; font-size: 12px; fill: rgb(42, 63, 95); fill-opacity: 1; white-space: pre;">0</text></g><g class="xtick"><text text-anchor="start" x="0" y="14.9" transform="translate(12.74,0) rotate(90,0,8.9)" style="font-family: 'Open Sans', verdana, arial, sans-serif; font-size: 12px; fill: rgb(42, 63, 95); fill-opacity: 1; white-space: pre;">500</text></g><g class="xtick"><text text-anchor="start" x="0" y="14.9" transform="translate(25.48,0) rotate(90,0,8.9)" style="font-family: 'Open Sans', verdana, arial, sans-serif; font-size: 12px; fill: rgb(42, 63, 95); fill-opacity: 1; white-space: pre;">1000</text></g><g class="xtick"><text text-anchor="start" x="0" y="14.9" transform="translate(38.22,0) rotate(90,0,8.9)" style="font-family: 'Open Sans', verdana, arial, sans-serif; font-size: 12px; fill: rgb(42, 63, 95); fill-opacity: 1; white-space: pre;">1500</text></g><g class="xtick"><text text-anchor="start" x="0" y="14.9" transform="translate(50.96,0) rotate(90,0,8.9)" style="font-family: 'Open Sans', verdana, arial, sans-serif; font-size: 12px; fill: rgb(42, 63, 95); fill-opacity: 1; white-space: pre;">2000</text></g><g class="xtick"><text text-anchor="start" x="0" y="14.9" transform="translate(63.7,0) rotate(90,0,8.9)" style="font-family: 'Open Sans', verdana, arial, sans-serif; font-size: 12px; fill: rgb(42, 63, 95); fill-opacity: 1; white-space: pre;">2500</text></g><g class="xtick"><text text-anchor="start" x="0" y="14.9" transform="translate(76.44,0) rotate(90,0,8.9)" style="font-family: 'Open Sans', verdana, arial, sans-serif; font-size: 12px; fill: rgb(42, 63, 95); fill-opacity: 1; white-space: pre;">3000</text></g><g class="xtick"><text text-anchor="start" x="0" y="14.9" transform="translate(89.18,0) rotate(90,0,8.9)" style="font-family: 'Open Sans', verdana, arial, sans-serif; font-size: 12px; fill: rgb(42, 63, 95); fill-opacity: 1; white-space: pre;">3500</text></g><g class="xtick"><text text-anchor="start" x="0" y="14.9" transform="translate(101.92,0) rotate(90,0,8.9)" style="font-family: 'Open Sans', verdana, arial, sans-serif; font-size: 12px; fill: rgb(42, 63, 95); fill-opacity: 1; white-space: pre;">4000</text></g></g></g><g class="polar4"><g class="polarsublayer draglayer"/><g class="polarsublayer plotbg"><path d="M111.99999999999997,0A111.99999999999997,111.99999999999997 0,1,0 -111.99999999999997,-1.3716044150450352e-14A111.99999999999997,111.99999999999997 0,1,0 111.99999999999997,2.7432088300900705e-14Z" transform="translate(589.74,700)" style="fill: rgb(255, 255, 255); fill-opacity: 1;"/></g><g class="polarsublayer backplot"><g class="maplayer"/></g><g class="polarsublayer angular-grid" style="fill: none;"><path class="angularaxisgrid" d="M589.74,700L589.74,588" style="stroke: rgb(235, 240, 248); stroke-opacity: 1; stroke-width: 1px;"/><path class="angularaxisgrid" d="M589.74,700L668.9359594928933,620.8040405071067" style="stroke: rgb(235, 240, 248); stroke-opacity: 1; stroke-width: 1px;"/><path class="angularaxisgrid" d="M589.74,700L701.74,700" style="stroke: rgb(235, 240, 248); stroke-opacity: 1; stroke-width: 1px;"/><path class="angularaxisgrid" d="M589.74,700L668.9359594928933,779.1959594928933" style="stroke: rgb(235, 240, 248); stroke-opacity: 1; stroke-width: 1px;"/><path class="angularaxisgrid" d="M589.74,700L589.74,812" style="stroke: rgb(235, 240, 248); stroke-opacity: 1; stroke-width: 1px;"/><path class="angularaxisgrid" d="M589.74,700L510.54404050710673,779.1959594928933" style="stroke: rgb(235, 240, 248); stroke-opacity: 1; stroke-width: 1px;"/><path class="angularaxisgrid" d="M589.74,700L477.74,700" style="stroke: rgb(235, 240, 248); stroke-opacity: 1; stroke-width: 1px;"/><path class="angularaxisgrid" d="M589.74,700L510.5440405071067,620.8040405071067" style="stroke: rgb(235, 240, 248); stroke-opacity: 1; stroke-width: 1px;"/></g><g class="polarsublayer radial-grid" transform="translate(589.74,700)" style="fill: none;"><path class="xgrid" d="M21.85,0A21.85,21.85 0,1,0 -21.85,-2.6758532561369668e-15A21.85,21.85 0,1,0 21.85,5.3517065122739335e-15Z" style="stroke: rgb(235, 240, 248); stroke-opacity: 1; stroke-width: 1px;"/><path class="xgrid" d="M43.71,0A43.71,43.71 0,1,0 -43.71,-5.352931159073081e-15A43.71,43.71 0,1,0 43.71,1.0705862318146162e-14Z" style="stroke: rgb(235, 240, 248); stroke-opacity: 1; stroke-width: 1px;"/><path class="xgrid" d="M65.56,0A65.56,65.56 0,1,0 -65.56,-8.028784415210049e-15A65.56,65.56 0,1,0 65.56,1.6057568830420097e-14Z" style="stroke: rgb(235, 240, 248); stroke-opacity: 1; stroke-width: 1px;"/><path class="xgrid" d="M87.41,0A87.41,87.41 0,1,0 -87.41,-1.0704637671347014e-14A87.41,87.41 0,1,0 87.41,2.1409275342694028e-14Z" style="stroke: rgb(235, 240, 248); stroke-opacity: 1; stroke-width: 1px;"/><path class="xgrid" d="M109.26,0A109.26,109.26 0,1,0 -109.26,-1.3380490927483982e-14A109.26,109.26 0,1,0 109.26,2.6760981854967964e-14Z" style="stroke: rgb(235, 240, 248); stroke-opacity: 1; stroke-width: 1px;"/></g><g class="polarsublayer frontplot" transform="translate(477.74000000000007,588)" clip-path="url(#clipcd6895polar4-for-traces)"><g class="barlayer"><g class="trace bars" style="opacity: 1;"><g class="points"><g class="point" style="vector-effect: none; stroke-miterlimit: 2;"><path d="M111.99999999999994,112L120.05516542201539,90.1655187058139A23.272951324707325,23.272951324707325 0,0,0 103.94483457798451,90.1655187058139L111.99999999999994,112A0,0 0,0,1 111.99999999999994,112Z" style="opacity: 1; stroke-width: 0.5px; fill: rgb(174, 214, 241); fill-opacity: 1; stroke: rgb(255, 255, 255); stroke-opacity: 1;"/></g><g class="point" style="vector-effect: none; stroke-miterlimit: 2;"><path d="M111.99999999999994,112L126.07026935505169,105.51351698162796A15.493448346683094,15.493448346683094 0,0,0 118.48648301837198,97.92973064494825L111.99999999999994,112A0,0 0,0,1 111.99999999999994,112Z" style="opacity: 1; stroke-width: 0.5px; fill: rgb(174, 214, 241); fill-opacity: 1; stroke: rgb(255, 255, 255); stroke-opacity: 1;"/></g><g class="point" style="vector-effect: none; stroke-miterlimit: 2;"><path d="M111.99999999999994,112L130.30816131052407,118.75423729752093A19.514315054425953,19.514315054425953 0,0,0 130.30816131052407,105.24576270247907L111.99999999999994,112A0,0 0,0,1 111.99999999999994,112Z" style="opacity: 1; stroke-width: 0.5px; fill: rgb(174, 214, 241); fill-opacity: 1; stroke: rgb(255, 255, 255); stroke-opacity: 1;"/></g><g class="point" style="vector-effect: none; stroke-miterlimit: 2;"><path d="M111.99999999999994,112L129.66628872845752,150.3211426299082A42.19724789484493,42.19724789484493 0,0,0 150.32114262990814,129.66628872845757L111.99999999999994,112A0,0 0,0,1 111.99999999999994,112Z" style="opacity: 1; stroke-width: 0.5px; fill: rgb(174, 214, 241); fill-opacity: 1; stroke: rgb(255, 255, 255); stroke-opacity: 1;"/></g><g class="point" style="vector-effect: none; stroke-miterlimit: 2;"><path d="M111.99999999999994,112L103.39269647863509,135.33111710120545A24.868186485931396,24.868186485931396 0,0,0 120.6073035213648,135.33111710120545L111.99999999999994,112A0,0 0,0,1 111.99999999999994,112Z" style="opacity: 1; stroke-width: 0.5px; fill: rgb(174, 214, 241); fill-opacity: 1; stroke: rgb(255, 255, 255); stroke-opacity: 1;"/></g><g class="point" style="vector-effect: none; stroke-miterlimit: 2;"><path d="M111.99999999999994,112L89.23751911107985,122.49364742182331A25.064859314027515,25.064859314027515 0,0,0 101.50635257817663,134.7624808889201L111.99999999999994,112A0,0 0,0,1 111.99999999999994,112Z" style="opacity: 1; stroke-width: 0.5px; fill: rgb(174, 214, 241); fill-opacity: 1; stroke: rgb(255, 255, 255); stroke-opacity: 1;"/></g><g class="point" style="vector-effect: none; stroke-miterlimit: 2;"><path d="M111.99999999999994,112L97.79221076350137,106.75846982398431A15.143807763401105,15.143807763401105 0,0,0 97.79221076350137,117.24153017601569L111.99999999999994,112A0,0 0,0,1 111.99999999999994,112Z" style="opacity: 1; stroke-width: 0.5px; fill: rgb(174, 214, 241); fill-opacity: 1; stroke: rgb(255, 255, 255); stroke-opacity: 1;"/></g><g class="point" style="vector-effect: none; stroke-miterlimit: 2;"><path d="M111.99999999999994,112L103.363554345073,93.26610116901432A20.62879441363729,20.62879441363729 0,0,0 93.26610116901426,103.36355434507306L111.99999999999994,112A0,0 0,0,1 111.99999999999994,112Z" style="opacity: 1; stroke-width: 0.5px; fill: rgb(174, 214, 241); fill-opacity: 1; stroke: rgb(255, 255, 255); stroke-opacity: 1;"/></g></g></g><g class="trace bars" style="opacity: 1;"><g class="points"><g class="point" style="vector-effect: none; stroke-miterlimit: 2;"><path d="M120.05516542201539,90.1655187058139L127.67920931440183,69.49964345272505A45.30030807147257,45.30030807147257 0,0,0 96.32079068559806,69.49964345272505L103.94483457798451,90.1655187058139A23.272951324707325,23.272951324707325 0,0,1 120.05516542201539,90.1655187058139Z" style="opacity: 1; stroke-width: 0.5px; fill: rgb(46, 134, 193); fill-opacity: 1; stroke: rgb(255, 255, 255); stroke-opacity: 1;"/></g><g class="point" style="vector-effect: none; stroke-miterlimit: 2;"><path d="M126.07026935505169,105.51351698162796L139.42611036485397,99.35638994162179A30.200205380981714,30.200205380981714 0,0,0 124.64361005837817,84.57388963514597L118.48648301837198,97.92973064494825A15.493448346683094,15.493448346683094 0,0,1 126.07026935505169,105.51351698162796Z" style="opacity: 1; stroke-width: 0.5px; fill: rgb(46, 134, 193); fill-opacity: 1; stroke: rgb(255, 255, 255); stroke-opacity: 1;"/></g><g class="point" style="vector-effect: none; stroke-miterlimit: 2;"><path d="M130.30816131052407,118.75423729752093L136.86875662896497,121.17456869192932A26.507126720065713,26.507126720065713 0,0,0 136.86875662896497,102.82543130807068L130.30816131052407,105.24576270247907A19.514315054425953,19.514315054425953 0,0,1 130.30816131052407,118.75423729752093Z" style="opacity: 1; stroke-width: 0.5px; fill: rgb(46, 134, 193); fill-opacity: 1; stroke: rgb(255, 255, 255); stroke-opacity: 1;"/></g><g class="point" style="vector-effect: none; stroke-miterlimit: 2;"><path d="M129.66628872845752,150.3211426299082L154.6424504212018,204.49862547799177A101.85467241733413,101.85467241733413 0,0,0 204.49862547799174,154.6424504212018L150.32114262990814,129.66628872845757A42.19724789484493,42.19724789484493 0,0,1 129.66628872845752,150.3211426299082Z" style="opacity: 1; stroke-width: 0.5px; fill: rgb(46, 134, 193); fill-opacity: 1; stroke: rgb(255, 255, 255); stroke-opacity: 1;"/></g><g class="point" style="vector-effect: none; stroke-miterlimit: 2;"><path d="M103.39269647863509,135.33111710120545L92.19110024388873,165.69437230936472A57.23179297597041,57.23179297597041 0,0,0 131.80889975611117,165.69437230936472L120.6073035213648,135.33111710120545A24.868186485931396,24.868186485931396 0,0,1 103.39269647863509,135.33111710120545Z" style="opacity: 1; stroke-width: 0.5px; fill: rgb(46, 134, 193); fill-opacity: 1; stroke: rgb(255, 255, 255); stroke-opacity: 1;"/></g><g class="point" style="vector-effect: none; stroke-miterlimit: 2;"><path d="M89.23751911107985,122.49364742182331L71.35696524803102,130.7366956581466A44.75399466009446,44.75399466009446 0,0,0 93.26330434185334,152.64303475196894L101.50635257817663,134.7624808889201A25.064859314027515,25.064859314027515 0,0,1 89.23751911107985,122.49364742182331Z" style="opacity: 1; stroke-width: 0.5px; fill: rgb(46, 134, 193); fill-opacity: 1; stroke: rgb(255, 255, 255); stroke-opacity: 1;"/></g><g class="point" style="vector-effect: none; stroke-miterlimit: 2;"><path d="M97.79221076350137,106.75846982398431L80.48864061111351,100.37484577123217A33.58734853152597,33.58734853152597 0,0,0 80.48864061111351,123.62515422876784L97.79221076350137,117.24153017601569A15.143807763401105,15.143807763401105 0,0,1 97.79221076350137,106.75846982398431Z" style="opacity: 1; stroke-width: 0.5px; fill: rgb(46, 134, 193); fill-opacity: 1; stroke: rgb(255, 255, 255); stroke-opacity: 1;"/></g><g class="point" style="vector-effect: none; stroke-miterlimit: 2;"><path d="M103.363554345073,93.26610116901432L92.38502173287772,69.45182299403253A46.85183815978639,46.85183815978639 0,0,0 69.45182299403247,92.38502173287779L93.26610116901426,103.36355434507306A20.62879441363729,20.62879441363729 0,0,1 103.363554345073,93.26610116901432Z" style="opacity: 1; stroke-width: 0.5px; fill: rgb(46, 134, 193); fill-opacity: 1; stroke: rgb(255, 255, 255); stroke-opacity: 1;"/></g></g></g><g class="trace bars" style="opacity: 1;"><g class="points"><g class="point" style="vector-effect: none; stroke-miterlimit: 2;"><path d="M127.67920931440183,69.49964345272505L129.53227553824576,64.47668766204374A50.65417950297801,50.65417950297801 0,0,0 94.46772446175413,64.47668766204374L96.32079068559806,69.49964345272505A45.30030807147257,45.30030807147257 0,0,1 127.67920931440183,69.49964345272505Z" style="opacity: 1; stroke-width: 0.5px; fill: rgb(26, 82, 118); fill-opacity: 1; stroke: rgb(255, 255, 255); stroke-opacity: 1;"/></g><g class="point" style="vector-effect: none; stroke-miterlimit: 2;"><path d="M139.42611036485397,99.35638994162179L140.9541932144153,98.65193409900591A31.88285068802628,31.88285068802628 0,0,0 125.34806590099403,83.04580678558463L124.64361005837817,84.57388963514597A30.200205380981714,30.200205380981714 0,0,1 139.42611036485397,99.35638994162179Z" style="opacity: 1; stroke-width: 0.5px; fill: rgb(26, 82, 118); fill-opacity: 1; stroke: rgb(255, 255, 255); stroke-opacity: 1;"/></g><g class="point" style="vector-effect: none; stroke-miterlimit: 2;"><path d="M136.86875662896497,121.17456869192932L137.01226965155587,121.22751344118201A26.660094475251583,26.660094475251583 0,0,0 137.01226965155587,102.77248655881799L136.86875662896497,102.82543130807068A26.507126720065713,26.507126720065713 0,0,1 136.86875662896497,121.17456869192932Z" style="opacity: 1; stroke-width: 0.5px; fill: rgb(26, 82, 118); fill-opacity: 1; stroke: rgb(255, 255, 255); stroke-opacity: 1;"/></g><g class="point" style="vector-effect: none; stroke-miterlimit: 2;"><path d="M154.6424504212018,204.49862547799177L156.54539607398232,208.6264336949886A106.39999999999998,106.39999999999998 0,0,0 208.62643369498858,156.54539607398232L204.49862547799174,154.6424504212018A101.85467241733413,101.85467241733413 0,0,1 154.6424504212018,204.49862547799177Z" style="opacity: 1; stroke-width: 0.5px; fill: rgb(26, 82, 118); fill-opacity: 1; stroke: rgb(255, 255, 255); stroke-opacity: 1;"/></g><g class="point" style="vector-effect: none; stroke-miterlimit: 2;"><path d="M92.19110024388873,165.69437230936472L91.58601739528662,167.33452113897494A58.97999589238035,58.97999589238035 0,0,0 132.41398260471328,167.33452113897494L131.80889975611117,165.69437230936472A57.23179297597041,57.23179297597041 0,0,1 92.19110024388873,165.69437230936472Z" style="opacity: 1; stroke-width: 0.5px; fill: rgb(26, 82, 118); fill-opacity: 1; stroke: rgb(255, 255, 255); stroke-opacity: 1;"/></g><g class="point" style="vector-effect: none; stroke-miterlimit: 2;"><path d="M71.35696524803102,130.7366956581466L71.23789385715611,130.79158832120757A44.88510987882521,44.88510987882521 0,0,0 93.20841167879237,152.76210614284383L93.26330434185334,152.64303475196894A44.75399466009446,44.75399466009446 0,0,1 71.35696524803102,130.7366956581466Z" style="opacity: 1; stroke-width: 0.5px; fill: rgb(26, 82, 118); fill-opacity: 1; stroke: rgb(255, 255, 255); stroke-opacity: 1;"/></g><g class="point" style="vector-effect: none; stroke-miterlimit: 2;"><path d="M80.48864061111351,100.37484577123217L72.55442064787404,97.44775749111952A42.04428013965906,42.04428013965906 0,0,0 72.55442064787405,126.5522425088805L80.48864061111351,123.62515422876784A33.58734853152597,33.58734853152597 0,0,1 80.48864061111351,100.37484577123217Z" style="opacity: 1; stroke-width: 0.5px; fill: rgb(26, 82, 118); fill-opacity: 1; stroke: rgb(255, 255, 255); stroke-opacity: 1;"/></g><g class="point" style="vector-effect: none; stroke-miterlimit: 2;"><path d="M92.38502173287772,69.45182299403253L89.21954482969474,62.58537278691278A54.41281577325938,54.41281577325938 0,0,0 62.585372786912714,89.21954482969483L69.45182299403247,92.38502173287779A46.85183815978639,46.85183815978639 0,0,1 92.38502173287772,69.45182299403253Z" style="opacity: 1; stroke-width: 0.5px; fill: rgb(26, 82, 118); fill-opacity: 1; stroke: rgb(255, 255, 255); stroke-opacity: 1;"/></g></g></g><g class="trace bars" style="opacity: 1;"><g class="points"><g class="point" style="vector-effect: none; stroke-miterlimit: 2;"><path d="M129.53227553824576,64.47668766204374L129.6835462503963,64.06665045464118A51.0912302320805,51.0912302320805 0,0,0 94.31645374960361,64.06665045464118L94.46772446175413,64.47668766204374A50.65417950297801,50.65417950297801 0,0,1 129.53227553824576,64.47668766204374Z" style="opacity: 1; stroke-width: 0.5px; fill: rgb(230, 126, 34); fill-opacity: 1; stroke: rgb(255, 255, 255); stroke-opacity: 1;"/></g><g class="point" style="vector-effect: none; stroke-miterlimit: 2;"><path d="M72.55442064787404,97.44775749111952L72.41090762528316,97.39481274186683A42.19724789484493,42.19724789484493 0,0,0 72.41090762528316,126.60518725813317L72.55442064787405,126.5522425088805A42.04428013965906,42.04428013965906 0,0,1 72.55442064787404,97.44775749111952Z" style="opacity: 1; stroke-width: 0.5px; fill: rgb(230, 126, 34); fill-opacity: 1; stroke: rgb(255, 255, 255); stroke-opacity: 1;"/></g><g class="point" style="vector-effect: none; stroke-miterlimit: 2;"><path d="M89.21954482969474,62.58537278691278L88.78955230238377,61.65264689172599A55.43988498665022,55.43988498665022 0,0,0 61.65264689172593,88.78955230238384L62.585372786912714,89.21954482969483A54.41281577325938,54.41281577325938 0,0,1 89.21954482969474,62.58537278691278Z" style="opacity: 1; stroke-width: 0.5px; fill: rgb(230, 126, 34); fill-opacity: 1; stroke: rgb(255, 255, 255); stroke-opacity: 1;"/></g></g></g></g><g class="scatterlayer"/></g><g class="polarsublayer angular-line"><path d="M111.99999999999997,0A111.99999999999997,111.99999999999997 0,1,0 -111.99999999999997,-1.3716044150450352e-14A111.99999999999997,111.99999999999997 0,1,0 111.99999999999997,2.7432088300900705e-14Z" transform="translate(589.74,700)" stroke-width="1" style="fill: none; stroke: rgb(235, 240, 248); stroke-opacity: 1;"/></g><g class="polarsublayer radial-line"><line x1="0" y1="0" x2="111.99999999999997" y2="0" transform="translate(589.74,700)" stroke-width="1" style="fill: none; stroke: rgb(235, 240, 248); stroke-opacity: 1;"/></g><g class="polarsublayer angular-axis"><g class="angularaxistick"><text text-anchor="middle" x="1.7757378587636624e-16" y="-5.300000000000001" transform="translate(589.74,588)" style="font-family: 'Open Sans', verdana, arial, sans-serif; font-size: 12px; fill: rgb(42, 63, 95); fill-opacity: 1; white-space: pre;">N</text></g><g class="angularaxistick"><text text-anchor="start" x="2.050609665440988" y="-0.7778174593052025" transform="translate(668.9359594928933,620.8040405071067)" style="font-family: 'Open Sans', verdana, arial, sans-serif; font-size: 12px; fill: rgb(42, 63, 95); fill-opacity: 1; white-space: pre;">NE</text></g><g class="angularaxistick"><text text-anchor="start" x="2.9000000000000004" y="4.199999999999999" transform="translate(701.74,700)" style="font-family: 'Open Sans', verdana, arial, sans-serif; font-size: 12px; fill: rgb(42, 63, 95); fill-opacity: 1; white-space: pre;">E</text></g><g class="angularaxistick"><text text-anchor="start" x="2.050609665440988" y="13.505739520663056" transform="translate(668.9359594928933,779.1959594928933)" style="font-family: 'Open Sans', verdana, arial, sans-serif; font-size: 12px; fill: rgb(42, 63, 95); fill-opacity: 1; white-space: pre;">SE</text></g><g class="angularaxistick"><text text-anchor="middle" x="1.7757378587636624e-16" y="14.9" transform="translate(589.74,812)" style="font-family: 'Open Sans', verdana, arial, sans-serif; font-size: 12px; fill: rgb(42, 63, 95); fill-opacity: 1; white-space: pre;">S</text></g><g class="angularaxistick"><text text-anchor="end" x="-2.0506096654409878" y="13.505739520663058" transform="translate(510.54404050710673,779.1959594928933)" style="font-family: 'Open Sans', verdana, arial, sans-serif; font-size: 12px; fill: rgb(42, 63, 95); fill-opacity: 1; white-space: pre;">SW</text></g><g class="angularaxistick"><text text-anchor="end" x="-2.9000000000000004" y="4.200000000000001" transform="translate(477.74,700)" style="font-family: 'Open Sans', verdana, arial, sans-serif; font-size: 12px; fill: rgb(42, 63, 95); fill-opacity: 1; white-space: pre;">W</text></g><g class="angularaxistick"><text text-anchor="end" x="-2.0506096654409887" y="-0.7778174593052021" transform="translate(510.5440405071067,620.8040405071067)" style="font-family: 'Open Sans', verdana, arial, sans-serif; font-size: 12px; fill: rgb(42, 63, 95); fill-opacity: 1; white-space: pre;">NW</text></g></g><g class="polarsublayer radial-axis" transform="translate(589.74,700)"><g class="xtick"><text text-anchor="start" x="0" y="14.9" transform=" rotate(90,0,8.9)" style="font-family: 'Open Sans', verdana, arial, sans-serif; font-size: 12px; fill: rgb(42, 63, 95); fill-opacity: 1; white-space: pre;">0</text></g><g class="xtick"><text text-anchor="start" x="0" y="14.9" transform="translate(21.85,0) rotate(90,0,8.9)" style="font-family: 'Open Sans', verdana, arial, sans-serif; font-size: 12px; fill: rgb(42, 63, 95); fill-opacity: 1; white-space: pre;">1000</text></g><g class="xtick"><text text-anchor="start" x="0" y="14.9" transform="translate(43.71,0) rotate(90,0,8.9)" style="font-family: 'Open Sans', verdana, arial, sans-serif; font-size: 12px; fill: rgb(42, 63, 95); fill-opacity: 1; white-space: pre;">2000</text></g><g class="xtick"><text text-anchor="start" x="0" y="14.9" transform="translate(65.56,0) rotate(90,0,8.9)" style="font-family: 'Open Sans', verdana, arial, sans-serif; font-size: 12px; fill: rgb(42, 63, 95); fill-opacity: 1; white-space: pre;">3000</text></g><g class="xtick"><text text-anchor="start" x="0" y="14.9" transform="translate(87.41,0) rotate(90,0,8.9)" style="font-family: 'Open Sans', verdana, arial, sans-serif; font-size: 12px; fill: rgb(42, 63, 95); fill-opacity: 1; white-space: pre;">4000</text></g><g class="xtick"><text text-anchor="start" x="0" y="14.9" transform="translate(109.26,0) rotate(90,0,8.9)" style="font-family: 'Open Sans', verdana, arial, sans-serif; font-size: 12px; fill: rgb(42, 63, 95); fill-opacity: 1; white-space: pre;">5000</text></g></g></g></g><g class="smithlayer"/><g class="ternarylayer"/><g class="geolayer"/><g class="funnelarealayer"/><g class="pielayer"/><g class="iciclelayer"/><g class="treemaplayer"/><g class="sunburstlayer"/><g class="glimages"/><defs id="topdefs-cd6895"><g class="clips"/><clipPath id="legendcd6895"><rect width="133" height="135" x="0" y="0"/></clipPath></defs><g class="layer-above"><g class="imagelayer"/><g class="shapelayer"/></g><g class="infolayer"><g class="legend" pointer-events="all" transform="translate(755.24,280)"><rect class="bg" shape-rendering="crispEdges" style="stroke: rgb(68, 68, 68); stroke-opacity: 1; fill: rgb(255, 255, 255); fill-opacity: 1; stroke-width: 0px;" width="133" height="135" x="0" y="0"/><g class="scrollbox" transform="" clip-path="url(#legendcd6895)"><text class="legendtitletext" text-anchor="start" x="2" y="18.2" style="font-family: 'Open Sans', verdana, arial, sans-serif; font-size: 14px; fill: rgb(42, 63, 95); fill-opacity: 1; white-space: pre;">Wind Speed (m/s)</text><g class="groups" transform=""><g class="traces" transform="translate(0,32.7)" style="opacity: 1;"><text class="legendtext" text-anchor="start" x="40" y="4.680000000000001" style="font-family: 'Open Sans', verdana, arial, sans-serif; font-size: 12px; fill: rgb(42, 63, 95); fill-opacity: 1; white-space: pre;">0-5</text><g class="layers" style="opacity: 1;"><g class="legendfill"/><g class="legendlines"/><g class="legendsymbols"><g class="legendpoints"><path class="legendundefined" d="M6,6H-6V-6H6Z" transform="translate(20,0)" style="stroke-width: 0.5px; fill: rgb(174, 214, 241); fill-opacity: 1; stroke: rgb(255, 255, 255); stroke-opacity: 1;"/></g></g></g><rect class="legendtoggle" x="0" y="-9.5" width="76.3359375" height="19" style="fill: rgb(0, 0, 0); fill-opacity: 0;"/></g></g><g class="groups" transform="translate(0,10)"><g class="traces" transform="translate(0,51.7)" style="opacity: 1;"><text class="legendtext" text-anchor="start" x="40" y="4.680000000000001" style="font-family: 'Open Sans', verdana, arial, sans-serif; font-size: 12px; fill: rgb(42, 63, 95); fill-opacity: 1; white-space: pre;">5-10</text><g class="layers" style="opacity: 1;"><g class="legendfill"/><g class="legendlines"/><g class="legendsymbols"><g class="legendpoints"><path class="legendundefined" d="M6,6H-6V-6H6Z" transform="translate(20,0)" style="stroke-width: 0.5px; fill: rgb(46, 134, 193); fill-opacity: 1; stroke: rgb(255, 255, 255); stroke-opacity: 1;"/></g></g></g><rect class="legendtoggle" x="0" y="-9.5" width="76.3359375" height="19" style="fill: rgb(0, 0, 0); fill-opacity: 0;"/></g></g><g class="groups" transform="translate(0,20)"><g class="traces" transform="translate(0,70.7)" style="opacity: 1;"><text class="legendtext" text-anchor="start" x="40" y="4.680000000000001" style="font-family: 'Open Sans', verdana, arial, sans-serif; font-size: 12px; fill: rgb(42, 63, 95); fill-opacity: 1; white-space: pre;">10-15</text><g class="layers" style="opacity: 1;"><g class="legendfill"/><g class="legendlines"/><g class="legendsymbols"><g class="legendpoints"><path class="legendundefined" d="M6,6H-6V-6H6Z" transform="translate(20,0)" style="stroke-width: 0.5px; fill: rgb(26, 82, 118); fill-opacity: 1; stroke: rgb(255, 255, 255); stroke-opacity: 1;"/></g></g></g><rect class="legendtoggle" x="0" y="-9.5" width="76.3359375" height="19" style="fill: rgb(0, 0, 0); fill-opacity: 0;"/></g></g><g class="groups" transform="translate(0,30)"><g class="traces" transform="translate(0,89.7)" style="opacity: 1;"><text class="legendtext" text-anchor="start" x="40" y="4.680000000000001" style="font-family: 'Open Sans', verdana, arial, sans-serif; font-size: 12px; fill: rgb(42, 63, 95); fill-opacity: 1; white-space: pre;">15-30</text><g class="layers" style="opacity: 1;"><g class="legendfill"/><g class="legendlines"/><g class="legendsymbols"><g class="legendpoints"><path class="legendundefined" d="M6,6H-6V-6H6Z" transform="translate(20,0)" style="stroke-width: 0.5px; fill: rgb(230, 126, 34); fill-opacity: 1; stroke: rgb(255, 255, 255); stroke-opacity: 1;"/></g></g></g><rect class="legendtoggle" x="0" y="-9.5" width="76.3359375" height="19" style="fill: rgb(0, 0, 0); fill-opacity: 0;"/></g></g></g><rect class="scrollbar" rx="20" ry="3" width="0" height="0" style="fill: rgb(128, 139, 164); fill-opacity: 1;" x="0" y="0"/></g><g class="g-gtitle"><text class="gtitle" x="450" y="24" text-anchor="middle" dy="0.7em" style="opacity: 1; font-family: 'Open Sans', verdana, arial, sans-serif; font-size: 17px; fill: rgb(42, 63, 95); fill-opacity: 1; white-space: pre;"><tspan class="line" dy="0em" x="450" y="24">Yearly Wind Roses — 2026</tspan><tspan class="line" dy="1.3em" x="450" y="24"> ​<tspan style="font-size:70%" dy="-0.6em"> <tspan style="font-weight:bold">How to Read the Wind Rose</tspan></tspan><tspan dy="0.42em">​</tspan></tspan><tspan class="line" dy="2.6em" x="450" y="24">​<tspan style="font-size:70%" dy="-0.6em"></tspan><tspan dy="0.42em">​</tspan></tspan><tspan class="line" dy="3.9000000000000004em" x="450" y="24">​<tspan style="font-size:70%" dy="-0.6em"> <tspan style="font-weight:bold">Direction:</tspan> Each spoke points in the direction the wind is coming FROM.  North (top) means wind blowing southward. The plot is oriented clockwise.</tspan><tspan dy="0.42em">​</tspan></tspan><tspan class="line" dy="5.2em" x="450" y="24">​<tspan style="font-size:70%" dy="-0.6em"></tspan><tspan dy="0.42em">​</tspan></tspan><tspan class="line" dy="6.5em" x="450" y="24">​<tspan style="font-size:70%" dy="-0.6em"> <tspan style="font-weight:bold">Length:</tspan> The longer the spoke, the more frequently wind came from  that direction.</tspan><tspan dy="0.42em">​</tspan></tspan><tspan class="line" dy="7.800000000000001em" x="450" y="24">​<tspan style="font-size:70%" dy="-0.6em"></tspan><tspan dy="0.42em">​</tspan></tspan><tspan class="line" dy="9.1em" x="450" y="24">​<tspan style="font-size:70%" dy="-0.6em"> <tspan style="font-weight:bold">Color:</tspan> Each color band represents a wind speed range (m/s).  Lighter blue = calm winds, dark navy = strong winds,  orange/red = highest speeds.</tspan><tspan dy="0.42em">​</tspan></tspan><tspan class="line" dy="10.4em" x="450" y="24">​<tspan style="font-size:70%" dy="-0.6em"></tspan><tspan dy="0.42em">​</tspan></tspan><tspan class="line" dy="11.700000000000001em" x="450" y="24">​<tspan style="font-size:70%" dy="-0.6em"> </tspan><tspan dy="0.42em">​</tspan></tspan></text></g><g class="g-polartitle"/><g class="g-polar2title"/><g class="g-polar3title"/><g class="g-polar4title"/><g class="annotation" data-index="0" style="opacity: 1;"><g class="annotation-text-g" transform="rotate(0,232.26000000000002,244.29999999999998)"><g class="cursor-pointer" transform="translate(195,234)"><rect class="bg" x="0.5" y="0.5" width="73" height="20" style="stroke-width: 1px; stroke: rgb(0, 0, 0); stroke-opacity: 0; fill: rgb(0, 0, 0); fill-opacity: 0;"/><text class="annotation-text" text-anchor="middle" x="36.953125" y="16" style="font-family: 'Open Sans', verdana, arial, sans-serif; font-size: 14px; fill: rgb(42, 63, 95); fill-opacity: 1; white-space: pre;">Annapolis</text></g></g></g><g class="annotation" data-index="1" style="opacity: 1;"><g class="annotation-text-g" transform="rotate(0,589.74,244.29999999999998)"><g class="cursor-pointer" transform="translate(519,234)"><rect class="bg" x="0.5" y="0.5" width="140" height="20" style="stroke-width: 1px; stroke: rgb(0, 0, 0); stroke-opacity: 0; fill: rgb(0, 0, 0); fill-opacity: 0;"/><text class="annotation-text" text-anchor="middle" x="70.0078125" y="16" style="font-family: 'Open Sans', verdana, arial, sans-serif; font-size: 14px; fill: rgb(42, 63, 95); fill-opacity: 1; white-space: pre;">Susquehanna River</text></g></g></g><g class="annotation" data-index="2" style="opacity: 1;"><g class="annotation-text-g" transform="rotate(0,232.26000000000002,552.3)"><g class="cursor-pointer" transform="translate(199,542)"><rect class="bg" x="0.5" y="0.5" width="66" height="20" style="stroke-width: 1px; stroke: rgb(0, 0, 0); stroke-opacity: 0; fill: rgb(0, 0, 0); fill-opacity: 0;"/><text class="annotation-text" text-anchor="middle" x="33.125" y="16" style="font-family: 'Open Sans', verdana, arial, sans-serif; font-size: 14px; fill: rgb(42, 63, 95); fill-opacity: 1; white-space: pre;">Patapsco</text></g></g></g><g class="annotation" data-index="3" style="opacity: 1;"><g class="annotation-text-g" transform="rotate(0,589.74,552.3)"><g class="cursor-pointer" transform="translate(544,542)"><rect class="bg" x="0.5" y="0.5" width="91" height="20" style="stroke-width: 1px; stroke: rgb(0, 0, 0); stroke-opacity: 0; fill: rgb(0, 0, 0); fill-opacity: 0;"/><text class="annotation-text" text-anchor="middle" x="45.3515625" y="16" style="font-family: 'Open Sans', verdana, arial, sans-serif; font-size: 14px; fill: rgb(42, 63, 95); fill-opacity: 1; white-space: pre;">Gooses Reef</text></g></g></g></g></svg>